solid Onshape
  facet normal 0 -1 0
    outer loop
      vertex 7.40555 2 3.62372
      vertex 13.3935 2 8.92328
      vertex -0.177974 2 6.15965
    endloop
  endfacet
  facet normal 0 -1 0
    outer loop
      vertex 13.3935 2 8.92328
      vertex 11.7979 2 16.7588
      vertex -0.177974 2 6.15965
    endloop
  endfacet
  facet normal 0 -1 0
    outer loop
      vertex -0.177974 2 6.15965
      vertex 11.7979 2 16.7588
      vertex -1.77355 2 13.9951
    endloop
  endfacet
  facet normal 0 -1 0
    outer loop
      vertex 11.7979 2 16.7588
      vertex 4.21439 2 19.2947
      vertex -1.77355 2 13.9951
    endloop
  endfacet
  facet normal -0.662751 0 0.74884
    outer loop
      vertex 13.3935 2 8.92328
      vertex 7.40555 2 3.62372
      vertex 13.3935 -5 8.92328
    endloop
  endfacet
  facet normal -0.662751 0 0.74884
    outer loop
      vertex 7.40555 2 3.62372
      vertex 7.40555 -5 3.62372
      vertex 13.3935 -5 8.92328
    endloop
  endfacet
  facet normal 0.317138 0 0.948379
    outer loop
      vertex 7.40555 2 3.62372
      vertex -0.177974 2 6.15965
      vertex 7.40555 -5 3.62372
    endloop
  endfacet
  facet normal 0.317138 0 0.948379
    outer loop
      vertex -0.177974 2 6.15965
      vertex -0.177974 -5 6.15965
      vertex 7.40555 -5 3.62372
    endloop
  endfacet
  facet normal 0.97989 0 0.19954
    outer loop
      vertex -0.177974 2 6.15965
      vertex -1.77355 2 13.9951
      vertex -0.177974 -5 6.15965
    endloop
  endfacet
  facet normal 0.97989 0 0.19954
    outer loop
      vertex -1.77355 2 13.9951
      vertex -1.77355 -5 13.9951
      vertex -0.177974 -5 6.15965
    endloop
  endfacet
  facet normal -1 0 0
    outer loop
      vertex -17.5 -5 25
      vertex -17.5 5 25
      vertex -17.5 -5 0
    endloop
  endfacet
  facet normal -1 0 0
    outer loop
      vertex -17.5 5 25
      vertex -17.5 5 0
      vertex -17.5 -5 0
    endloop
  endfacet
  facet normal 1 0 0
    outer loop
      vertex 17.5 5 25
      vertex 17.5 -5 25
      vertex 17.5 5 0
    endloop
  endfacet
  facet normal 1 0 0
    outer loop
      vertex 17.5 -5 25
      vertex 17.5 -5 0
      vertex 17.5 5 0
    endloop
  endfacet
  facet normal 0 -1 0
    outer loop
      vertex 17.5 -5 25
      vertex -17.5 -5 25
      vertex 4.21439 -5 19.2947
    endloop
  endfacet
  facet normal 0 -1 0
    outer loop
      vertex -17.5 -5 0
      vertex -9.5 -5 10.75
      vertex -9.68538 -5 10.754
    endloop
  endfacet
  facet normal 0 -1 0
    outer loop
      vertex -9.5 -5 19.25
      vertex -9.31462 -5 19.246
      vertex -17.5 -5 25
    endloop
  endfacet
  facet normal 0 -1 0
    outer loop
      vertex 4.21439 -5 19.2947
      vertex 11.7979 -5 16.7588
      vertex 17.5 -5 25
    endloop
  endfacet
  facet normal 0 -1 0
    outer loop
      vertex 11.7979 -5 16.7588
      vertex 13.3935 -5 8.92328
      vertex 17.5 -5 25
    endloop
  endfacet
  facet normal 0 -1 0
    outer loop
      vertex 17.5 -5 25
      vertex 13.3935 -5 8.92328
      vertex 17.5 -5 0
    endloop
  endfacet
  facet normal 0 -1 0
    outer loop
      vertex 13.3935 -5 8.92328
      vertex 7.40555 -5 3.62372
      vertex 17.5 -5 0
    endloop
  endfacet
  facet normal 0 -1 0
    outer loop
      vertex 17.5 -5 0
      vertex 7.40555 -5 3.62372
      vertex -17.5 -5 0
    endloop
  endfacet
  facet normal 0 -1 0
    outer loop
      vertex 7.40555 -5 3.62372
      vertex -0.177974 -5 6.15965
      vertex -17.5 -5 0
    endloop
  endfacet
  facet normal 0 -1 0
    outer loop
      vertex -1.77355 -5 13.9951
      vertex -6.62874 -5 18.1334
      vertex -6.4948 -5 18.0052
    endloop
  endfacet
  facet normal 0 -1 0
    outer loop
      vertex -6.4948 -5 18.0052
      vertex -6.36657 -5 17.8713
      vertex -1.77355 -5 13.9951
    endloop
  endfacet
  facet normal 0 -1 0
    outer loop
      vertex -6.36657 -5 17.8713
      vertex -6.24431 -5 17.7318
      vertex -1.77355 -5 13.9951
    endloop
  endfacet
  facet normal 0 -1 0
    outer loop
      vertex -1.77355 -5 13.9951
      vertex -6.24431 -5 17.7318
      vertex -6.12825 -5 17.5872
    endloop
  endfacet
  facet normal 0 -1 0
    outer loop
      vertex -6.12825 -5 17.5872
      vertex -6.0186 -5 17.4377
      vertex -1.77355 -5 13.9951
    endloop
  endfacet
  facet normal 0 -1 0
    outer loop
      vertex -6.0186 -5 17.4377
      vertex -5.91559 -5 17.2835
      vertex -1.77355 -5 13.9951
    endloop
  endfacet
  facet normal 0 -1 0
    outer loop
      vertex -1.77355 -5 13.9951
      vertex -5.91559 -5 17.2835
      vertex -5.81939 -5 17.125
    endloop
  endfacet
  facet normal 0 -1 0
    outer loop
      vertex -0.177974 -5 6.15965
      vertex -8.04641 -5 11.0063
      vertex -8.222 -5 10.9467
    endloop
  endfacet
  facet normal 0 -1 0
    outer loop
      vertex -9.68538 -5 10.754
      vertex -9.87041 -5 10.7662
      vertex -17.5 -5 0
    endloop
  endfacet
  facet normal 0 -1 0
    outer loop
      vertex -9.87041 -5 10.7662
      vertex -10.0547 -5 10.7864
      vertex -17.5 -5 0
    endloop
  endfacet
  facet normal 0 -1 0
    outer loop
      vertex -17.5 -5 0
      vertex -10.0547 -5 10.7864
      vertex -10.238 -5 10.8146
    endloop
  endfacet
  facet normal 0 -1 0
    outer loop
      vertex -11.7835 -5 11.4156
      vertex -11.9377 -5 11.5186
      vertex -17.5 -5 0
    endloop
  endfacet
  facet normal 0 -1 0
    outer loop
      vertex -11.4624 -5 18.7698
      vertex -11.2961 -5 18.8518
      vertex -17.5 -5 25
    endloop
  endfacet
  facet normal 0 -1 0
    outer loop
      vertex -17.5 -5 25
      vertex -10.238 -5 19.1854
      vertex -10.0547 -5 19.2136
    endloop
  endfacet
  facet normal 0 -1 0
    outer loop
      vertex -5.39482 -5 16.1
      vertex -5.35074 -5 15.9199
      vertex -1.77355 -5 13.9951
    endloop
  endfacet
  facet normal 0 -1 0
    outer loop
      vertex -5.35074 -5 15.9199
      vertex -5.31457 -5 15.738
      vertex -1.77355 -5 13.9951
    endloop
  endfacet
  facet normal 0 -1 0
    outer loop
      vertex -1.77355 -5 13.9951
      vertex -5.31457 -5 15.738
      vertex -5.28636 -5 15.5547
    endloop
  endfacet
  facet normal 0 -1 0
    outer loop
      vertex -1.77355 -5 13.9951
      vertex -5.4467 -5 13.722
      vertex -5.50631 -5 13.5464
    endloop
  endfacet
  facet normal 0 -1 0
    outer loop
      vertex -7.375 -5 11.3194
      vertex -7.53757 -5 11.2302
      vertex -0.177974 -5 6.15965
    endloop
  endfacet
  facet normal 0 -1 0
    outer loop
      vertex -17.5 -5 25
      vertex -12.0872 -5 18.3718
      vertex -11.9377 -5 18.4814
    endloop
  endfacet
  facet normal 0 -1 0
    outer loop
      vertex -11.2961 -5 18.8518
      vertex -11.1264 -5 18.9265
      vertex -17.5 -5 25
    endloop
  endfacet
  facet normal 0 -1 0
    outer loop
      vertex -11.1264 -5 18.9265
      vertex -10.9536 -5 18.9937
      vertex -17.5 -5 25
    endloop
  endfacet
  facet normal 0 -1 0
    outer loop
      vertex -17.5 -5 25
      vertex -10.9536 -5 18.9937
      vertex -10.778 -5 19.0533
    endloop
  endfacet
  facet normal 0 -1 0
    outer loop
      vertex -10.0547 -5 19.2136
      vertex -9.87041 -5 19.2338
      vertex -17.5 -5 25
    endloop
  endfacet
  facet normal 0 -1 0
    outer loop
      vertex -9.87041 -5 19.2338
      vertex -9.68538 -5 19.246
      vertex -17.5 -5 25
    endloop
  endfacet
  facet normal 0 -1 0
    outer loop
      vertex -17.5 -5 25
      vertex -9.68538 -5 19.246
      vertex -9.5 -5 19.25
    endloop
  endfacet
  facet normal 0 -1 0
    outer loop
      vertex -1.77355 -5 13.9951
      vertex -5.28636 -5 14.4453
      vertex -5.31457 -5 14.262
    endloop
  endfacet
  facet normal 0 -1 0
    outer loop
      vertex -1.77355 -5 13.9951
      vertex -5.50631 -5 13.5464
      vertex -0.177974 -5 6.15965
    endloop
  endfacet
  facet normal 0 -1 0
    outer loop
      vertex -5.50631 -5 13.5464
      vertex -5.57351 -5 13.3736
      vertex -0.177974 -5 6.15965
    endloop
  endfacet
  facet normal 0 -1 0
    outer loop
      vertex -0.177974 -5 6.15965
      vertex -5.57351 -5 13.3736
      vertex -5.64819 -5 13.2039
    endloop
  endfacet
  facet normal 0 -1 0
    outer loop
      vertex -5.64819 -5 13.2039
      vertex -5.7302 -5 13.0376
      vertex -0.177974 -5 6.15965
    endloop
  endfacet
  facet normal 0 -1 0
    outer loop
      vertex -5.7302 -5 13.0376
      vertex -5.81939 -5 12.875
      vertex -0.177974 -5 6.15965
    endloop
  endfacet
  facet normal 0 -1 0
    outer loop
      vertex -0.177974 -5 6.15965
      vertex -5.81939 -5 12.875
      vertex -5.91559 -5 12.7165
    endloop
  endfacet
  facet normal 0 -1 0
    outer loop
      vertex -6.4948 -5 11.9948
      vertex -0.177974 -5 6.15965
      vertex -6.36657 -5 12.1287
    endloop
  endfacet
  facet normal 0 -1 0
    outer loop
      vertex -0.177974 -5 6.15965
      vertex -6.24431 -5 12.2682
      vertex -6.36657 -5 12.1287
    endloop
  endfacet
  facet normal 0 -1 0
    outer loop
      vertex -8.94526 -5 10.7864
      vertex -9.12959 -5 10.7662
      vertex -17.5 -5 0
    endloop
  endfacet
  facet normal 0 -1 0
    outer loop
      vertex -9.12959 -5 10.7662
      vertex -9.31462 -5 10.754
      vertex -17.5 -5 0
    endloop
  endfacet
  facet normal 0 -1 0
    outer loop
      vertex -17.5 -5 0
      vertex -9.31462 -5 10.754
      vertex -9.5 -5 10.75
    endloop
  endfacet
  facet normal 0 -1 0
    outer loop
      vertex -13.6052 -5 16.1
      vertex -17.5 -5 25
      vertex -13.6493 -5 15.9199
    endloop
  endfacet
  facet normal 0 -1 0
    outer loop
      vertex -17.5 -5 25
      vertex -13.6854 -5 15.738
      vertex -13.6493 -5 15.9199
    endloop
  endfacet
  facet normal 0 -1 0
    outer loop
      vertex -13.6052 -5 16.1
      vertex -13.5533 -5 16.278
      vertex -17.5 -5 25
    endloop
  endfacet
  facet normal 0 -1 0
    outer loop
      vertex -13.5533 -5 16.278
      vertex -13.4937 -5 16.4536
      vertex -17.5 -5 25
    endloop
  endfacet
  facet normal 0 -1 0
    outer loop
      vertex -17.5 -5 25
      vertex -13.4937 -5 16.4536
      vertex -13.4265 -5 16.6264
    endloop
  endfacet
  facet normal 0 -1 0
    outer loop
      vertex -12.8718 -5 17.5872
      vertex -12.7557 -5 17.7318
      vertex -17.5 -5 25
    endloop
  endfacet
  facet normal 0 -1 0
    outer loop
      vertex -12.7557 -5 17.7318
      vertex -12.6334 -5 17.8713
      vertex -17.5 -5 25
    endloop
  endfacet
  facet normal 0 -1 0
    outer loop
      vertex -17.5 -5 25
      vertex -12.6334 -5 17.8713
      vertex -12.5052 -5 18.0052
    endloop
  endfacet
  facet normal 0 -1 0
    outer loop
      vertex -12.5052 -5 18.0052
      vertex -12.3713 -5 18.1334
      vertex -17.5 -5 25
    endloop
  endfacet
  facet normal 0 -1 0
    outer loop
      vertex -12.3713 -5 18.1334
      vertex -12.2318 -5 18.2557
      vertex -17.5 -5 25
    endloop
  endfacet
  facet normal 0 -1 0
    outer loop
      vertex -17.5 -5 25
      vertex -12.2318 -5 18.2557
      vertex -12.0872 -5 18.3718
    endloop
  endfacet
  facet normal 0 -1 0
    outer loop
      vertex -11.9377 -5 18.4814
      vertex -11.7835 -5 18.5844
      vertex -17.5 -5 25
    endloop
  endfacet
  facet normal 0 -1 0
    outer loop
      vertex -11.7835 -5 18.5844
      vertex -11.625 -5 18.6806
      vertex -17.5 -5 25
    endloop
  endfacet
  facet normal 0 -1 0
    outer loop
      vertex -17.5 -5 25
      vertex -11.625 -5 18.6806
      vertex -11.4624 -5 18.7698
    endloop
  endfacet
  facet normal 0 -1 0
    outer loop
      vertex -10.778 -5 19.0533
      vertex -10.6 -5 19.1052
      vertex -17.5 -5 25
    endloop
  endfacet
  facet normal 0 -1 0
    outer loop
      vertex -10.6 -5 19.1052
      vertex -10.4199 -5 19.1493
      vertex -17.5 -5 25
    endloop
  endfacet
  facet normal 0 -1 0
    outer loop
      vertex -17.5 -5 25
      vertex -10.4199 -5 19.1493
      vertex -10.238 -5 19.1854
    endloop
  endfacet
  facet normal 0 -1 0
    outer loop
      vertex -9.31462 -5 19.246
      vertex -9.12959 -5 19.2338
      vertex -17.5 -5 25
    endloop
  endfacet
  facet normal 0 -1 0
    outer loop
      vertex -9.12959 -5 19.2338
      vertex -8.94526 -5 19.2136
      vertex -17.5 -5 25
    endloop
  endfacet
  facet normal 0 -1 0
    outer loop
      vertex -17.5 -5 25
      vertex -8.94526 -5 19.2136
      vertex -8.762 -5 19.1854
    endloop
  endfacet
  facet normal 0 -1 0
    outer loop
      vertex -8.04641 -5 18.9937
      vertex -7.8736 -5 18.9265
      vertex 4.21439 -5 19.2947
    endloop
  endfacet
  facet normal 0 -1 0
    outer loop
      vertex -6.62874 -5 18.1334
      vertex -1.77355 -5 13.9951
      vertex -6.76815 -5 18.2557
    endloop
  endfacet
  facet normal 0 -1 0
    outer loop
      vertex -1.77355 -5 13.9951
      vertex 4.21439 -5 19.2947
      vertex -6.76815 -5 18.2557
    endloop
  endfacet
  facet normal 0 -1 0
    outer loop
      vertex -6.76815 -5 18.2557
      vertex 4.21439 -5 19.2947
      vertex -6.91276 -5 18.3718
    endloop
  endfacet
  facet normal 0 -1 0
    outer loop
      vertex -5.81939 -5 17.125
      vertex -5.7302 -5 16.9624
      vertex -1.77355 -5 13.9951
    endloop
  endfacet
  facet normal 0 -1 0
    outer loop
      vertex -5.7302 -5 16.9624
      vertex -5.64819 -5 16.7961
      vertex -1.77355 -5 13.9951
    endloop
  endfacet
  facet normal 0 -1 0
    outer loop
      vertex -1.77355 -5 13.9951
      vertex -5.64819 -5 16.7961
      vertex -5.57351 -5 16.6264
    endloop
  endfacet
  facet normal 0 -1 0
    outer loop
      vertex -5.28636 -5 15.5547
      vertex -5.26617 -5 15.3704
      vertex -1.77355 -5 13.9951
    endloop
  endfacet
  facet normal 0 -1 0
    outer loop
      vertex -5.26617 -5 15.3704
      vertex -5.25405 -5 15.1854
      vertex -1.77355 -5 13.9951
    endloop
  endfacet
  facet normal 0 -1 0
    outer loop
      vertex -1.77355 -5 13.9951
      vertex -5.25405 -5 15.1854
      vertex -5.25 -5 15
    endloop
  endfacet
  facet normal 0 -1 0
    outer loop
      vertex -5.31457 -5 14.262
      vertex -5.35074 -5 14.0801
      vertex -1.77355 -5 13.9951
    endloop
  endfacet
  facet normal 0 -1 0
    outer loop
      vertex -5.35074 -5 14.0801
      vertex -5.39482 -5 13.9
      vertex -1.77355 -5 13.9951
    endloop
  endfacet
  facet normal 0 -1 0
    outer loop
      vertex -1.77355 -5 13.9951
      vertex -5.39482 -5 13.9
      vertex -5.4467 -5 13.722
    endloop
  endfacet
  facet normal 0 -1 0
    outer loop
      vertex -5.91559 -5 12.7165
      vertex -6.0186 -5 12.5623
      vertex -0.177974 -5 6.15965
    endloop
  endfacet
  facet normal 0 -1 0
    outer loop
      vertex -6.0186 -5 12.5623
      vertex -6.12825 -5 12.4128
      vertex -0.177974 -5 6.15965
    endloop
  endfacet
  facet normal 0 -1 0
    outer loop
      vertex -0.177974 -5 6.15965
      vertex -6.12825 -5 12.4128
      vertex -6.24431 -5 12.2682
    endloop
  endfacet
  facet normal 0 -1 0
    outer loop
      vertex -6.4948 -5 11.9948
      vertex -6.62874 -5 11.8666
      vertex -0.177974 -5 6.15965
    endloop
  endfacet
  facet normal 0 -1 0
    outer loop
      vertex -6.62874 -5 11.8666
      vertex -6.76815 -5 11.7443
      vertex -0.177974 -5 6.15965
    endloop
  endfacet
  facet normal 0 -1 0
    outer loop
      vertex -0.177974 -5 6.15965
      vertex -6.76815 -5 11.7443
      vertex -6.91276 -5 11.6282
    endloop
  endfacet
  facet normal 0 -1 0
    outer loop
      vertex -6.91276 -5 11.6282
      vertex -7.0623 -5 11.5186
      vertex -0.177974 -5 6.15965
    endloop
  endfacet
  facet normal 0 -1 0
    outer loop
      vertex -7.0623 -5 11.5186
      vertex -7.21648 -5 11.4156
      vertex -0.177974 -5 6.15965
    endloop
  endfacet
  facet normal 0 -1 0
    outer loop
      vertex -0.177974 -5 6.15965
      vertex -7.21648 -5 11.4156
      vertex -7.375 -5 11.3194
    endloop
  endfacet
  facet normal 0 -1 0
    outer loop
      vertex -7.53757 -5 11.2302
      vertex -7.70387 -5 11.1482
      vertex -0.177974 -5 6.15965
    endloop
  endfacet
  facet normal 0 -1 0
    outer loop
      vertex -7.70387 -5 11.1482
      vertex -7.8736 -5 11.0735
      vertex -0.177974 -5 6.15965
    endloop
  endfacet
  facet normal 0 -1 0
    outer loop
      vertex -0.177974 -5 6.15965
      vertex -7.8736 -5 11.0735
      vertex -8.04641 -5 11.0063
    endloop
  endfacet
  facet normal 0 -1 0
    outer loop
      vertex -8.222 -5 10.9467
      vertex -8.40002 -5 10.8948
      vertex -0.177974 -5 6.15965
    endloop
  endfacet
  facet normal 0 -1 0
    outer loop
      vertex -8.40002 -5 10.8948
      vertex -8.58013 -5 10.8507
      vertex -0.177974 -5 6.15965
    endloop
  endfacet
  facet normal 0 -1 0
    outer loop
      vertex -0.177974 -5 6.15965
      vertex -8.58013 -5 10.8507
      vertex -17.5 -5 0
    endloop
  endfacet
  facet normal 0 -1 0
    outer loop
      vertex -8.58013 -5 10.8507
      vertex -8.762 -5 10.8146
      vertex -17.5 -5 0
    endloop
  endfacet
  facet normal 0 -1 0
    outer loop
      vertex -17.5 -5 0
      vertex -8.762 -5 10.8146
      vertex -8.94526 -5 10.7864
    endloop
  endfacet
  facet normal 0 -1 0
    outer loop
      vertex -10.238 -5 10.8146
      vertex -10.4199 -5 10.8507
      vertex -17.5 -5 0
    endloop
  endfacet
  facet normal 0 -1 0
    outer loop
      vertex -10.4199 -5 10.8507
      vertex -10.6 -5 10.8948
      vertex -17.5 -5 0
    endloop
  endfacet
  facet normal 0 -1 0
    outer loop
      vertex -17.5 -5 0
      vertex -10.6 -5 10.8948
      vertex -10.778 -5 10.9467
    endloop
  endfacet
  facet normal 0 -1 0
    outer loop
      vertex -10.778 -5 10.9467
      vertex -10.9536 -5 11.0063
      vertex -17.5 -5 0
    endloop
  endfacet
  facet normal 0 -1 0
    outer loop
      vertex -10.9536 -5 11.0063
      vertex -11.1264 -5 11.0735
      vertex -17.5 -5 0
    endloop
  endfacet
  facet normal 0 -1 0
    outer loop
      vertex -17.5 -5 0
      vertex -11.1264 -5 11.0735
      vertex -11.2961 -5 11.1482
    endloop
  endfacet
  facet normal 0 -1 0
    outer loop
      vertex -13.3518 -5 13.2039
      vertex -13.4265 -5 13.3736
      vertex -17.5 -5 0
    endloop
  endfacet
  facet normal 0 -1 0
    outer loop
      vertex -7.8736 -5 18.9265
      vertex -7.70387 -5 18.8518
      vertex 4.21439 -5 19.2947
    endloop
  endfacet
  facet normal 0 -1 0
    outer loop
      vertex -7.70387 -5 18.8518
      vertex -7.53757 -5 18.7698
      vertex 4.21439 -5 19.2947
    endloop
  endfacet
  facet normal 0 -1 0
    outer loop
      vertex 4.21439 -5 19.2947
      vertex -7.53757 -5 18.7698
      vertex -7.375 -5 18.6806
    endloop
  endfacet
  facet normal 0 -1 0
    outer loop
      vertex -7.375 -5 18.6806
      vertex -7.21648 -5 18.5844
      vertex 4.21439 -5 19.2947
    endloop
  endfacet
  facet normal 0 -1 0
    outer loop
      vertex -7.21648 -5 18.5844
      vertex -7.0623 -5 18.4814
      vertex 4.21439 -5 19.2947
    endloop
  endfacet
  facet normal 0 -1 0
    outer loop
      vertex 4.21439 -5 19.2947
      vertex -7.0623 -5 18.4814
      vertex -6.91276 -5 18.3718
    endloop
  endfacet
  facet normal 0 -1 0
    outer loop
      vertex -5.57351 -5 16.6264
      vertex -5.50631 -5 16.4536
      vertex -1.77355 -5 13.9951
    endloop
  endfacet
  facet normal 0 -1 0
    outer loop
      vertex -5.50631 -5 16.4536
      vertex -5.4467 -5 16.278
      vertex -1.77355 -5 13.9951
    endloop
  endfacet
  facet normal 0 -1 0
    outer loop
      vertex -1.77355 -5 13.9951
      vertex -5.4467 -5 16.278
      vertex -5.39482 -5 16.1
    endloop
  endfacet
  facet normal 0 -1 0
    outer loop
      vertex -5.25 -5 15
      vertex -5.25405 -5 14.8146
      vertex -1.77355 -5 13.9951
    endloop
  endfacet
  facet normal 0 -1 0
    outer loop
      vertex -5.25405 -5 14.8146
      vertex -5.26617 -5 14.6296
      vertex -1.77355 -5 13.9951
    endloop
  endfacet
  facet normal 0 -1 0
    outer loop
      vertex -1.77355 -5 13.9951
      vertex -5.26617 -5 14.6296
      vertex -5.28636 -5 14.4453
    endloop
  endfacet
  facet normal 0 -1 0
    outer loop
      vertex -13.4265 -5 16.6264
      vertex -13.3518 -5 16.7961
      vertex -17.5 -5 25
    endloop
  endfacet
  facet normal 0 -1 0
    outer loop
      vertex -13.3518 -5 16.7961
      vertex -13.2698 -5 16.9624
      vertex -17.5 -5 25
    endloop
  endfacet
  facet normal 0 -1 0
    outer loop
      vertex -17.5 -5 25
      vertex -13.2698 -5 16.9624
      vertex -13.1806 -5 17.125
    endloop
  endfacet
  facet normal 0 -1 0
    outer loop
      vertex -13.1806 -5 17.125
      vertex -13.0844 -5 17.2835
      vertex -17.5 -5 25
    endloop
  endfacet
  facet normal 0 -1 0
    outer loop
      vertex -13.0844 -5 17.2835
      vertex -12.9814 -5 17.4377
      vertex -17.5 -5 25
    endloop
  endfacet
  facet normal 0 -1 0
    outer loop
      vertex -17.5 -5 25
      vertex -12.9814 -5 17.4377
      vertex -12.8718 -5 17.5872
    endloop
  endfacet
  facet normal 0 -1 0
    outer loop
      vertex -11.9377 -5 11.5186
      vertex -12.0872 -5 11.6282
      vertex -17.5 -5 0
    endloop
  endfacet
  facet normal 0 -1 0
    outer loop
      vertex -12.0872 -5 11.6282
      vertex -12.2318 -5 11.7443
      vertex -17.5 -5 0
    endloop
  endfacet
  facet normal 0 -1 0
    outer loop
      vertex -17.5 -5 0
      vertex -12.2318 -5 11.7443
      vertex -12.3713 -5 11.8666
    endloop
  endfacet
  facet normal 0 -1 0
    outer loop
      vertex -12.3713 -5 11.8666
      vertex -12.5052 -5 11.9948
      vertex -17.5 -5 0
    endloop
  endfacet
  facet normal 0 -1 0
    outer loop
      vertex -12.5052 -5 11.9948
      vertex -12.6334 -5 12.1287
      vertex -17.5 -5 0
    endloop
  endfacet
  facet normal 0 -1 0
    outer loop
      vertex -17.5 -5 0
      vertex -12.6334 -5 12.1287
      vertex -12.7557 -5 12.2682
    endloop
  endfacet
  facet normal 0 -1 0
    outer loop
      vertex -13.4265 -5 13.3736
      vertex -13.4937 -5 13.5464
      vertex -17.5 -5 0
    endloop
  endfacet
  facet normal 0 -1 0
    outer loop
      vertex -13.4937 -5 13.5464
      vertex -13.5533 -5 13.722
      vertex -17.5 -5 0
    endloop
  endfacet
  facet normal 0 -1 0
    outer loop
      vertex -17.5 -5 0
      vertex -13.5533 -5 13.722
      vertex -13.6052 -5 13.9
    endloop
  endfacet
  facet normal 0 -1 0
    outer loop
      vertex -8.762 -5 19.1854
      vertex -8.58013 -5 19.1493
      vertex -17.5 -5 25
    endloop
  endfacet
  facet normal 0 -1 0
    outer loop
      vertex -8.58013 -5 19.1493
      vertex -8.40002 -5 19.1052
      vertex -17.5 -5 25
    endloop
  endfacet
  facet normal 0 -1 0
    outer loop
      vertex -17.5 -5 25
      vertex -8.40002 -5 19.1052
      vertex 4.21439 -5 19.2947
    endloop
  endfacet
  facet normal 0 -1 0
    outer loop
      vertex -8.40002 -5 19.1052
      vertex -8.222 -5 19.0533
      vertex 4.21439 -5 19.2947
    endloop
  endfacet
  facet normal 0 -1 0
    outer loop
      vertex 4.21439 -5 19.2947
      vertex -8.222 -5 19.0533
      vertex -8.04641 -5 18.9937
    endloop
  endfacet
  facet normal 0 -1 0
    outer loop
      vertex -11.2961 -5 11.1482
      vertex -11.4624 -5 11.2302
      vertex -17.5 -5 0
    endloop
  endfacet
  facet normal 0 -1 0
    outer loop
      vertex -11.4624 -5 11.2302
      vertex -11.625 -5 11.3194
      vertex -17.5 -5 0
    endloop
  endfacet
  facet normal 0 -1 0
    outer loop
      vertex -17.5 -5 0
      vertex -11.625 -5 11.3194
      vertex -11.7835 -5 11.4156
    endloop
  endfacet
  facet normal 0 -1 0
    outer loop
      vertex -12.7557 -5 12.2682
      vertex -12.8718 -5 12.4128
      vertex -17.5 -5 0
    endloop
  endfacet
  facet normal 0 -1 0
    outer loop
      vertex -12.8718 -5 12.4128
      vertex -12.9814 -5 12.5623
      vertex -17.5 -5 0
    endloop
  endfacet
  facet normal 0 -1 0
    outer loop
      vertex -17.5 -5 0
      vertex -12.9814 -5 12.5623
      vertex -13.0844 -5 12.7165
    endloop
  endfacet
  facet normal 0 -1 0
    outer loop
      vertex -13.0844 -5 12.7165
      vertex -13.1806 -5 12.875
      vertex -17.5 -5 0
    endloop
  endfacet
  facet normal 0 -1 0
    outer loop
      vertex -13.1806 -5 12.875
      vertex -13.2698 -5 13.0376
      vertex -17.5 -5 0
    endloop
  endfacet
  facet normal 0 -1 0
    outer loop
      vertex -17.5 -5 0
      vertex -13.2698 -5 13.0376
      vertex -13.3518 -5 13.2039
    endloop
  endfacet
  facet normal 0 -1 0
    outer loop
      vertex -13.6052 -5 13.9
      vertex -13.6493 -5 14.0801
      vertex -17.5 -5 0
    endloop
  endfacet
  facet normal 0 -1 0
    outer loop
      vertex -13.6493 -5 14.0801
      vertex -13.6854 -5 14.262
      vertex -17.5 -5 0
    endloop
  endfacet
  facet normal 0 -1 0
    outer loop
      vertex -17.5 -5 0
      vertex -13.6854 -5 14.262
      vertex -13.7136 -5 14.4453
    endloop
  endfacet
  facet normal 0 -1 0
    outer loop
      vertex -13.7136 -5 14.4453
      vertex -13.7338 -5 14.6296
      vertex -17.5 -5 0
    endloop
  endfacet
  facet normal 0 -1 0
    outer loop
      vertex -13.7338 -5 14.6296
      vertex -13.746 -5 14.8146
      vertex -17.5 -5 0
    endloop
  endfacet
  facet normal 0 -1 0
    outer loop
      vertex -17.5 -5 0
      vertex -13.746 -5 14.8146
      vertex -17.5 -5 25
    endloop
  endfacet
  facet normal 0 -1 0
    outer loop
      vertex -13.746 -5 14.8146
      vertex -13.75 -5 15
      vertex -17.5 -5 25
    endloop
  endfacet
  facet normal 0 -1 0
    outer loop
      vertex -17.5 -5 25
      vertex -13.75 -5 15
      vertex -13.746 -5 15.1854
    endloop
  endfacet
  facet normal 0 -1 0
    outer loop
      vertex -13.746 -5 15.1854
      vertex -13.7338 -5 15.3704
      vertex -17.5 -5 25
    endloop
  endfacet
  facet normal 0 -1 0
    outer loop
      vertex -13.7338 -5 15.3704
      vertex -13.7136 -5 15.5547
      vertex -17.5 -5 25
    endloop
  endfacet
  facet normal 0 -1 0
    outer loop
      vertex -17.5 -5 25
      vertex -13.7136 -5 15.5547
      vertex -13.6854 -5 15.738
    endloop
  endfacet
  facet normal 0 0 1
    outer loop
      vertex -17.5 5 25
      vertex -17.5 -5 25
      vertex 17.5 5 25
    endloop
  endfacet
  facet normal 0 0 1
    outer loop
      vertex -17.5 -5 25
      vertex 17.5 -5 25
      vertex 17.5 5 25
    endloop
  endfacet
  facet normal -0.97989 0 -0.19954
    outer loop
      vertex 11.7979 2 16.7588
      vertex 13.3935 2 8.92328
      vertex 11.7979 -5 16.7588
    endloop
  endfacet
  facet normal -0.97989 0 -0.19954
    outer loop
      vertex 13.3935 2 8.92328
      vertex 13.3935 -5 8.92328
      vertex 11.7979 -5 16.7588
    endloop
  endfacet
  facet normal 0 0 -1
    outer loop
      vertex -17.5 -5 0
      vertex -17.5 5 0
      vertex 17.5 -5 0
    endloop
  endfacet
  facet normal 0 0 -1
    outer loop
      vertex -17.5 5 0
      vertex 17.5 5 0
      vertex 17.5 -5 0
    endloop
  endfacet
  facet normal 0 1 0
    outer loop
      vertex -17.5 5 25
      vertex -9.5 5 19.25
      vertex -9.68538 5 19.246
    endloop
  endfacet
  facet normal 0 1 0
    outer loop
      vertex -5.91559 5 17.2835
      vertex -6.0186 5 17.4377
      vertex 17.5 5 25
    endloop
  endfacet
  facet normal 0 1 0
    outer loop
      vertex -10.238 5 19.1854
      vertex -10.4199 5 19.1493
      vertex -17.5 5 25
    endloop
  endfacet
  facet normal 0 1 0
    outer loop
      vertex -10.9536 5 18.9937
      vertex -11.1264 5 18.9265
      vertex -17.5 5 25
    endloop
  endfacet
  facet normal 0 1 0
    outer loop
      vertex -9.68538 5 19.246
      vertex -9.87041 5 19.2338
      vertex -17.5 5 25
    endloop
  endfacet
  facet normal 0 1 0
    outer loop
      vertex -9.87041 5 19.2338
      vertex -10.0547 5 19.2136
      vertex -17.5 5 25
    endloop
  endfacet
  facet normal 0 1 0
    outer loop
      vertex -17.5 5 25
      vertex -10.0547 5 19.2136
      vertex -10.238 5 19.1854
    endloop
  endfacet
  facet normal 0 1 0
    outer loop
      vertex -11.1264 5 18.9265
      vertex -11.2961 5 18.8518
      vertex -17.5 5 25
    endloop
  endfacet
  facet normal 0 1 0
    outer loop
      vertex -11.2961 5 18.8518
      vertex -11.4624 5 18.7698
      vertex -17.5 5 25
    endloop
  endfacet
  facet normal 0 1 0
    outer loop
      vertex -17.5 5 25
      vertex -11.4624 5 18.7698
      vertex -11.625 5 18.6806
    endloop
  endfacet
  facet normal 0 1 0
    outer loop
      vertex -8.222 5 10.9467
      vertex -8.04641 5 11.0063
      vertex 17.5 5 0
    endloop
  endfacet
  facet normal 0 1 0
    outer loop
      vertex -5.28636 5 15.5547
      vertex -5.31457 5 15.738
      vertex 17.5 5 25
    endloop
  endfacet
  facet normal 0 1 0
    outer loop
      vertex -6.0186 5 17.4377
      vertex -6.12825 5 17.5872
      vertex 17.5 5 25
    endloop
  endfacet
  facet normal 0 1 0
    outer loop
      vertex -6.12825 5 17.5872
      vertex -6.24431 5 17.7318
      vertex 17.5 5 25
    endloop
  endfacet
  facet normal 0 1 0
    outer loop
      vertex 17.5 5 25
      vertex -6.24431 5 17.7318
      vertex -6.36657 5 17.8713
    endloop
  endfacet
  facet normal 0 1 0
    outer loop
      vertex -10.4199 5 19.1493
      vertex -10.6 5 19.1052
      vertex -17.5 5 25
    endloop
  endfacet
  facet normal 0 1 0
    outer loop
      vertex -10.6 5 19.1052
      vertex -10.778 5 19.0533
      vertex -17.5 5 25
    endloop
  endfacet
  facet normal 0 1 0
    outer loop
      vertex -17.5 5 25
      vertex -10.778 5 19.0533
      vertex -10.9536 5 18.9937
    endloop
  endfacet
  facet normal 0 1 0
    outer loop
      vertex -11.625 5 18.6806
      vertex -11.7835 5 18.5844
      vertex -17.5 5 25
    endloop
  endfacet
  facet normal 0 1 0
    outer loop
      vertex -11.7835 5 18.5844
      vertex -11.9377 5 18.4814
      vertex -17.5 5 25
    endloop
  endfacet
  facet normal 0 1 0
    outer loop
      vertex -17.5 5 25
      vertex -11.9377 5 18.4814
      vertex -12.0872 5 18.3718
    endloop
  endfacet
  facet normal 0 1 0
    outer loop
      vertex -12.0872 5 18.3718
      vertex -12.2318 5 18.2557
      vertex -17.5 5 25
    endloop
  endfacet
  facet normal 0 1 0
    outer loop
      vertex -12.2318 5 18.2557
      vertex -12.3713 5 18.1334
      vertex -17.5 5 25
    endloop
  endfacet
  facet normal 0 1 0
    outer loop
      vertex -17.5 5 25
      vertex -12.3713 5 18.1334
      vertex -12.5052 5 18.0052
    endloop
  endfacet
  facet normal 0 1 0
    outer loop
      vertex -12.5052 5 18.0052
      vertex -12.6334 5 17.8713
      vertex -17.5 5 25
    endloop
  endfacet
  facet normal 0 1 0
    outer loop
      vertex -12.6334 5 17.8713
      vertex -12.7557 5 17.7318
      vertex -17.5 5 25
    endloop
  endfacet
  facet normal 0 1 0
    outer loop
      vertex -17.5 5 25
      vertex -12.7557 5 17.7318
      vertex -12.8718 5 17.5872
    endloop
  endfacet
  facet normal 0 1 0
    outer loop
      vertex -13.5533 5 16.278
      vertex -17.5 5 25
      vertex -13.4937 5 16.4536
    endloop
  endfacet
  facet normal 0 1 0
    outer loop
      vertex -17.5 5 25
      vertex -13.4265 5 16.6264
      vertex -13.4937 5 16.4536
    endloop
  endfacet
  facet normal 0 1 0
    outer loop
      vertex -13.5533 5 16.278
      vertex -13.6052 5 16.1
      vertex -17.5 5 25
    endloop
  endfacet
  facet normal 0 1 0
    outer loop
      vertex -13.6052 5 16.1
      vertex -13.6493 5 15.9199
      vertex -17.5 5 25
    endloop
  endfacet
  facet normal 0 1 0
    outer loop
      vertex -17.5 5 25
      vertex -13.6493 5 15.9199
      vertex -13.6854 5 15.738
    endloop
  endfacet
  facet normal 0 1 0
    outer loop
      vertex -5.50631 5 13.5464
      vertex -5.4467 5 13.722
      vertex 17.5 5 0
    endloop
  endfacet
  facet normal 0 1 0
    outer loop
      vertex -6.36657 5 17.8713
      vertex -6.4948 5 18.0052
      vertex 17.5 5 25
    endloop
  endfacet
  facet normal 0 1 0
    outer loop
      vertex -6.4948 5 18.0052
      vertex -6.62874 5 18.1334
      vertex 17.5 5 25
    endloop
  endfacet
  facet normal 0 1 0
    outer loop
      vertex 17.5 5 25
      vertex -6.62874 5 18.1334
      vertex -6.76815 5 18.2557
    endloop
  endfacet
  facet normal 0 1 0
    outer loop
      vertex -13.4937 5 13.5464
      vertex -13.4265 5 13.3736
      vertex -17.5 5 0
    endloop
  endfacet
  facet normal 0 1 0
    outer loop
      vertex -10.778 5 10.9467
      vertex -17.5 5 0
      vertex -10.9536 5 11.0063
    endloop
  endfacet
  facet normal 0 1 0
    outer loop
      vertex -17.5 5 0
      vertex -11.1264 5 11.0735
      vertex -10.9536 5 11.0063
    endloop
  endfacet
  facet normal 0 1 0
    outer loop
      vertex -10.778 5 10.9467
      vertex -10.6 5 10.8948
      vertex -17.5 5 0
    endloop
  endfacet
  facet normal 0 1 0
    outer loop
      vertex -10.6 5 10.8948
      vertex -10.4199 5 10.8507
      vertex -17.5 5 0
    endloop
  endfacet
  facet normal 0 1 0
    outer loop
      vertex -17.5 5 0
      vertex -10.4199 5 10.8507
      vertex -10.238 5 10.8146
    endloop
  endfacet
  facet normal 0 1 0
    outer loop
      vertex -5.81939 5 12.875
      vertex -5.7302 5 13.0376
      vertex 17.5 5 0
    endloop
  endfacet
  facet normal 0 1 0
    outer loop
      vertex -6.76815 5 18.2557
      vertex -6.91276 5 18.3718
      vertex 17.5 5 25
    endloop
  endfacet
  facet normal 0 1 0
    outer loop
      vertex -6.91276 5 18.3718
      vertex -7.0623 5 18.4814
      vertex 17.5 5 25
    endloop
  endfacet
  facet normal 0 1 0
    outer loop
      vertex 17.5 5 25
      vertex -7.0623 5 18.4814
      vertex -7.21648 5 18.5844
    endloop
  endfacet
  facet normal 0 1 0
    outer loop
      vertex -7.21648 5 18.5844
      vertex -7.375 5 18.6806
      vertex 17.5 5 25
    endloop
  endfacet
  facet normal 0 1 0
    outer loop
      vertex -7.375 5 18.6806
      vertex -7.53757 5 18.7698
      vertex 17.5 5 25
    endloop
  endfacet
  facet normal 0 1 0
    outer loop
      vertex 17.5 5 25
      vertex -7.53757 5 18.7698
      vertex -7.70387 5 18.8518
    endloop
  endfacet
  facet normal 0 1 0
    outer loop
      vertex -8.94526 5 19.2136
      vertex -9.12959 5 19.2338
      vertex -17.5 5 25
    endloop
  endfacet
  facet normal 0 1 0
    outer loop
      vertex -9.12959 5 19.2338
      vertex -9.31462 5 19.246
      vertex -17.5 5 25
    endloop
  endfacet
  facet normal 0 1 0
    outer loop
      vertex -17.5 5 25
      vertex -9.31462 5 19.246
      vertex -9.5 5 19.25
    endloop
  endfacet
  facet normal 0 1 0
    outer loop
      vertex -12.8718 5 17.5872
      vertex -12.9814 5 17.4377
      vertex -17.5 5 25
    endloop
  endfacet
  facet normal 0 1 0
    outer loop
      vertex -12.9814 5 17.4377
      vertex -13.0844 5 17.2835
      vertex -17.5 5 25
    endloop
  endfacet
  facet normal 0 1 0
    outer loop
      vertex -17.5 5 25
      vertex -13.0844 5 17.2835
      vertex -13.1806 5 17.125
    endloop
  endfacet
  facet normal 0 1 0
    outer loop
      vertex -13.1806 5 17.125
      vertex -13.2698 5 16.9624
      vertex -17.5 5 25
    endloop
  endfacet
  facet normal 0 1 0
    outer loop
      vertex -13.2698 5 16.9624
      vertex -13.3518 5 16.7961
      vertex -17.5 5 25
    endloop
  endfacet
  facet normal 0 1 0
    outer loop
      vertex -17.5 5 25
      vertex -13.3518 5 16.7961
      vertex -13.4265 5 16.6264
    endloop
  endfacet
  facet normal 0 1 0
    outer loop
      vertex -13.7136 5 14.4453
      vertex -13.6854 5 14.262
      vertex -17.5 5 0
    endloop
  endfacet
  facet normal 0 1 0
    outer loop
      vertex -13.6854 5 14.262
      vertex -13.6493 5 14.0801
      vertex -17.5 5 0
    endloop
  endfacet
  facet normal 0 1 0
    outer loop
      vertex -17.5 5 0
      vertex -8.58013 5 10.8507
      vertex 17.5 5 0
    endloop
  endfacet
  facet normal 0 1 0
    outer loop
      vertex -8.58013 5 10.8507
      vertex -8.40002 5 10.8948
      vertex 17.5 5 0
    endloop
  endfacet
  facet normal 0 1 0
    outer loop
      vertex 17.5 5 0
      vertex -8.40002 5 10.8948
      vertex -8.222 5 10.9467
    endloop
  endfacet
  facet normal 0 1 0
    outer loop
      vertex 17.5 5 0
      vertex -7.53757 5 11.2302
      vertex -7.375 5 11.3194
    endloop
  endfacet
  facet normal 0 1 0
    outer loop
      vertex -6.4948 5 11.9948
      vertex -6.36657 5 12.1287
      vertex 17.5 5 0
    endloop
  endfacet
  facet normal 0 1 0
    outer loop
      vertex -6.36657 5 12.1287
      vertex -6.24431 5 12.2682
      vertex 17.5 5 0
    endloop
  endfacet
  facet normal 0 1 0
    outer loop
      vertex 17.5 5 0
      vertex -6.24431 5 12.2682
      vertex -6.12825 5 12.4128
    endloop
  endfacet
  facet normal 0 1 0
    outer loop
      vertex -5.7302 5 13.0376
      vertex -5.64819 5 13.2039
      vertex 17.5 5 0
    endloop
  endfacet
  facet normal 0 1 0
    outer loop
      vertex -5.64819 5 13.2039
      vertex -5.57351 5 13.3736
      vertex 17.5 5 0
    endloop
  endfacet
  facet normal 0 1 0
    outer loop
      vertex 17.5 5 0
      vertex -5.57351 5 13.3736
      vertex -5.50631 5 13.5464
    endloop
  endfacet
  facet normal 0 1 0
    outer loop
      vertex -5.31457 5 15.738
      vertex -5.35074 5 15.9199
      vertex 17.5 5 25
    endloop
  endfacet
  facet normal 0 1 0
    outer loop
      vertex -5.35074 5 15.9199
      vertex -5.39482 5 16.1
      vertex 17.5 5 25
    endloop
  endfacet
  facet normal 0 1 0
    outer loop
      vertex 17.5 5 25
      vertex -5.39482 5 16.1
      vertex -5.4467 5 16.278
    endloop
  endfacet
  facet normal 0 1 0
    outer loop
      vertex -5.64819 5 16.7961
      vertex -5.7302 5 16.9624
      vertex 17.5 5 25
    endloop
  endfacet
  facet normal 0 1 0
    outer loop
      vertex -5.7302 5 16.9624
      vertex -5.81939 5 17.125
      vertex 17.5 5 25
    endloop
  endfacet
  facet normal 0 1 0
    outer loop
      vertex 17.5 5 25
      vertex -5.81939 5 17.125
      vertex -5.91559 5 17.2835
    endloop
  endfacet
  facet normal 0 1 0
    outer loop
      vertex -7.70387 5 18.8518
      vertex -7.8736 5 18.9265
      vertex 17.5 5 25
    endloop
  endfacet
  facet normal 0 1 0
    outer loop
      vertex -7.8736 5 18.9265
      vertex -8.04641 5 18.9937
      vertex 17.5 5 25
    endloop
  endfacet
  facet normal 0 1 0
    outer loop
      vertex 17.5 5 25
      vertex -8.04641 5 18.9937
      vertex -8.222 5 19.0533
    endloop
  endfacet
  facet normal 0 1 0
    outer loop
      vertex -8.222 5 19.0533
      vertex -8.40002 5 19.1052
      vertex 17.5 5 25
    endloop
  endfacet
  facet normal 0 1 0
    outer loop
      vertex -8.40002 5 19.1052
      vertex -8.58013 5 19.1493
      vertex 17.5 5 25
    endloop
  endfacet
  facet normal 0 1 0
    outer loop
      vertex 17.5 5 25
      vertex -8.58013 5 19.1493
      vertex -17.5 5 25
    endloop
  endfacet
  facet normal 0 1 0
    outer loop
      vertex -8.58013 5 19.1493
      vertex -8.762 5 19.1854
      vertex -17.5 5 25
    endloop
  endfacet
  facet normal 0 1 0
    outer loop
      vertex -17.5 5 25
      vertex -8.762 5 19.1854
      vertex -8.94526 5 19.2136
    endloop
  endfacet
  facet normal 0 1 0
    outer loop
      vertex -13.6493 5 14.0801
      vertex -13.6052 5 13.9
      vertex -17.5 5 0
    endloop
  endfacet
  facet normal 0 1 0
    outer loop
      vertex -13.6052 5 13.9
      vertex -13.5533 5 13.722
      vertex -17.5 5 0
    endloop
  endfacet
  facet normal 0 1 0
    outer loop
      vertex -17.5 5 0
      vertex -13.5533 5 13.722
      vertex -13.4937 5 13.5464
    endloop
  endfacet
  facet normal 0 1 0
    outer loop
      vertex -13.4265 5 13.3736
      vertex -13.3518 5 13.2039
      vertex -17.5 5 0
    endloop
  endfacet
  facet normal 0 1 0
    outer loop
      vertex -13.3518 5 13.2039
      vertex -13.2698 5 13.0376
      vertex -17.5 5 0
    endloop
  endfacet
  facet normal 0 1 0
    outer loop
      vertex -17.5 5 0
      vertex -13.2698 5 13.0376
      vertex -13.1806 5 12.875
    endloop
  endfacet
  facet normal 0 1 0
    outer loop
      vertex -12.5052 5 11.9948
      vertex -12.3713 5 11.8666
      vertex -17.5 5 0
    endloop
  endfacet
  facet normal 0 1 0
    outer loop
      vertex -12.3713 5 11.8666
      vertex -12.2318 5 11.7443
      vertex -17.5 5 0
    endloop
  endfacet
  facet normal 0 1 0
    outer loop
      vertex -17.5 5 0
      vertex -12.2318 5 11.7443
      vertex -12.0872 5 11.6282
    endloop
  endfacet
  facet normal 0 1 0
    outer loop
      vertex -12.0872 5 11.6282
      vertex -11.9377 5 11.5186
      vertex -17.5 5 0
    endloop
  endfacet
  facet normal 0 1 0
    outer loop
      vertex -11.9377 5 11.5186
      vertex -11.7835 5 11.4156
      vertex -17.5 5 0
    endloop
  endfacet
  facet normal 0 1 0
    outer loop
      vertex -17.5 5 0
      vertex -11.7835 5 11.4156
      vertex -11.625 5 11.3194
    endloop
  endfacet
  facet normal 0 1 0
    outer loop
      vertex -9.68538 5 10.754
      vertex -9.5 5 10.75
      vertex -17.5 5 0
    endloop
  endfacet
  facet normal 0 1 0
    outer loop
      vertex -9.5 5 10.75
      vertex -9.31462 5 10.754
      vertex -17.5 5 0
    endloop
  endfacet
  facet normal 0 1 0
    outer loop
      vertex -17.5 5 0
      vertex -9.31462 5 10.754
      vertex -9.12959 5 10.7662
    endloop
  endfacet
  facet normal 0 1 0
    outer loop
      vertex -8.04641 5 11.0063
      vertex -7.8736 5 11.0735
      vertex 17.5 5 0
    endloop
  endfacet
  facet normal 0 1 0
    outer loop
      vertex -7.8736 5 11.0735
      vertex -7.70387 5 11.1482
      vertex 17.5 5 0
    endloop
  endfacet
  facet normal 0 1 0
    outer loop
      vertex 17.5 5 0
      vertex -7.70387 5 11.1482
      vertex -7.53757 5 11.2302
    endloop
  endfacet
  facet normal 0 1 0
    outer loop
      vertex -7.375 5 11.3194
      vertex -7.21648 5 11.4156
      vertex 17.5 5 0
    endloop
  endfacet
  facet normal 0 1 0
    outer loop
      vertex -7.21648 5 11.4156
      vertex -7.0623 5 11.5186
      vertex 17.5 5 0
    endloop
  endfacet
  facet normal 0 1 0
    outer loop
      vertex 17.5 5 0
      vertex -7.0623 5 11.5186
      vertex -6.91276 5 11.6282
    endloop
  endfacet
  facet normal 0 1 0
    outer loop
      vertex -6.91276 5 11.6282
      vertex -6.76815 5 11.7443
      vertex 17.5 5 0
    endloop
  endfacet
  facet normal 0 1 0
    outer loop
      vertex -6.76815 5 11.7443
      vertex -6.62874 5 11.8666
      vertex 17.5 5 0
    endloop
  endfacet
  facet normal 0 1 0
    outer loop
      vertex 17.5 5 0
      vertex -6.62874 5 11.8666
      vertex -6.4948 5 11.9948
    endloop
  endfacet
  facet normal 0 1 0
    outer loop
      vertex -6.12825 5 12.4128
      vertex -6.0186 5 12.5623
      vertex 17.5 5 0
    endloop
  endfacet
  facet normal 0 1 0
    outer loop
      vertex -6.0186 5 12.5623
      vertex -5.91559 5 12.7165
      vertex 17.5 5 0
    endloop
  endfacet
  facet normal 0 1 0
    outer loop
      vertex 17.5 5 0
      vertex -5.91559 5 12.7165
      vertex -5.81939 5 12.875
    endloop
  endfacet
  facet normal 0 1 0
    outer loop
      vertex -5.4467 5 13.722
      vertex -5.39482 5 13.9
      vertex 17.5 5 0
    endloop
  endfacet
  facet normal 0 1 0
    outer loop
      vertex -5.39482 5 13.9
      vertex -5.35074 5 14.0801
      vertex 17.5 5 0
    endloop
  endfacet
  facet normal 0 1 0
    outer loop
      vertex 17.5 5 0
      vertex -5.35074 5 14.0801
      vertex -5.31457 5 14.262
    endloop
  endfacet
  facet normal 0 1 0
    outer loop
      vertex -13.1806 5 12.875
      vertex -13.0844 5 12.7165
      vertex -17.5 5 0
    endloop
  endfacet
  facet normal 0 1 0
    outer loop
      vertex -13.0844 5 12.7165
      vertex -12.9814 5 12.5623
      vertex -17.5 5 0
    endloop
  endfacet
  facet normal 0 1 0
    outer loop
      vertex -17.5 5 0
      vertex -12.9814 5 12.5623
      vertex -12.8718 5 12.4128
    endloop
  endfacet
  facet normal 0 1 0
    outer loop
      vertex -12.8718 5 12.4128
      vertex -12.7557 5 12.2682
      vertex -17.5 5 0
    endloop
  endfacet
  facet normal 0 1 0
    outer loop
      vertex -12.7557 5 12.2682
      vertex -12.6334 5 12.1287
      vertex -17.5 5 0
    endloop
  endfacet
  facet normal 0 1 0
    outer loop
      vertex -17.5 5 0
      vertex -12.6334 5 12.1287
      vertex -12.5052 5 11.9948
    endloop
  endfacet
  facet normal 0 1 0
    outer loop
      vertex -11.625 5 11.3194
      vertex -11.4624 5 11.2302
      vertex -17.5 5 0
    endloop
  endfacet
  facet normal 0 1 0
    outer loop
      vertex -11.4624 5 11.2302
      vertex -11.2961 5 11.1482
      vertex -17.5 5 0
    endloop
  endfacet
  facet normal 0 1 0
    outer loop
      vertex -17.5 5 0
      vertex -11.2961 5 11.1482
      vertex -11.1264 5 11.0735
    endloop
  endfacet
  facet normal 0 1 0
    outer loop
      vertex -10.238 5 10.8146
      vertex -10.0547 5 10.7864
      vertex -17.5 5 0
    endloop
  endfacet
  facet normal 0 1 0
    outer loop
      vertex -10.0547 5 10.7864
      vertex -9.87041 5 10.7662
      vertex -17.5 5 0
    endloop
  endfacet
  facet normal 0 1 0
    outer loop
      vertex -17.5 5 0
      vertex -9.87041 5 10.7662
      vertex -9.68538 5 10.754
    endloop
  endfacet
  facet normal 0 1 0
    outer loop
      vertex -9.12959 5 10.7662
      vertex -8.94526 5 10.7864
      vertex -17.5 5 0
    endloop
  endfacet
  facet normal 0 1 0
    outer loop
      vertex -8.94526 5 10.7864
      vertex -8.762 5 10.8146
      vertex -17.5 5 0
    endloop
  endfacet
  facet normal 0 1 0
    outer loop
      vertex -17.5 5 0
      vertex -8.762 5 10.8146
      vertex -8.58013 5 10.8507
    endloop
  endfacet
  facet normal 0 1 0
    outer loop
      vertex -5.25 5 15
      vertex -5.25405 5 15.1854
      vertex 17.5 5 25
    endloop
  endfacet
  facet normal 0 1 0
    outer loop
      vertex -5.25405 5 15.1854
      vertex -5.26617 5 15.3704
      vertex 17.5 5 25
    endloop
  endfacet
  facet normal 0 1 0
    outer loop
      vertex 17.5 5 25
      vertex -5.26617 5 15.3704
      vertex -5.28636 5 15.5547
    endloop
  endfacet
  facet normal 0 1 0
    outer loop
      vertex -5.4467 5 16.278
      vertex -5.50631 5 16.4536
      vertex 17.5 5 25
    endloop
  endfacet
  facet normal 0 1 0
    outer loop
      vertex -5.50631 5 16.4536
      vertex -5.57351 5 16.6264
      vertex 17.5 5 25
    endloop
  endfacet
  facet normal 0 1 0
    outer loop
      vertex 17.5 5 25
      vertex -5.57351 5 16.6264
      vertex -5.64819 5 16.7961
    endloop
  endfacet
  facet normal 0 1 0
    outer loop
      vertex -13.6854 5 15.738
      vertex -13.7136 5 15.5547
      vertex -17.5 5 25
    endloop
  endfacet
  facet normal 0 1 0
    outer loop
      vertex -13.7136 5 15.5547
      vertex -13.7338 5 15.3704
      vertex -17.5 5 25
    endloop
  endfacet
  facet normal 0 1 0
    outer loop
      vertex -17.5 5 25
      vertex -13.7338 5 15.3704
      vertex -13.746 5 15.1854
    endloop
  endfacet
  facet normal 0 1 0
    outer loop
      vertex -13.746 5 15.1854
      vertex -13.75 5 15
      vertex -17.5 5 25
    endloop
  endfacet
  facet normal 0 1 0
    outer loop
      vertex -13.75 5 15
      vertex -13.746 5 14.8146
      vertex -17.5 5 25
    endloop
  endfacet
  facet normal 0 1 0
    outer loop
      vertex -17.5 5 25
      vertex -13.746 5 14.8146
      vertex -17.5 5 0
    endloop
  endfacet
  facet normal 0 1 0
    outer loop
      vertex -13.746 5 14.8146
      vertex -13.7338 5 14.6296
      vertex -17.5 5 0
    endloop
  endfacet
  facet normal 0 1 0
    outer loop
      vertex -17.5 5 0
      vertex -13.7338 5 14.6296
      vertex -13.7136 5 14.4453
    endloop
  endfacet
  facet normal 0 1 0
    outer loop
      vertex -5.31457 5 14.262
      vertex -5.28636 5 14.4453
      vertex 17.5 5 0
    endloop
  endfacet
  facet normal 0 1 0
    outer loop
      vertex -5.28636 5 14.4453
      vertex -5.26617 5 14.6296
      vertex 17.5 5 0
    endloop
  endfacet
  facet normal 0 1 0
    outer loop
      vertex 17.5 5 0
      vertex -5.26617 5 14.6296
      vertex 17.5 5 25
    endloop
  endfacet
  facet normal 0 1 0
    outer loop
      vertex -5.26617 5 14.6296
      vertex -5.25405 5 14.8146
      vertex 17.5 5 25
    endloop
  endfacet
  facet normal 0 1 0
    outer loop
      vertex 17.5 5 25
      vertex -5.25405 5 14.8146
      vertex -5.25 5 15
    endloop
  endfacet
  facet normal -0.317138 0 -0.948379
    outer loop
      vertex 4.21439 2 19.2947
      vertex 11.7979 2 16.7588
      vertex 4.21439 -5 19.2947
    endloop
  endfacet
  facet normal -0.317138 0 -0.948379
    outer loop
      vertex 11.7979 2 16.7588
      vertex 11.7979 -5 16.7588
      vertex 4.21439 -5 19.2947
    endloop
  endfacet
  facet normal -0.0218131 0 0.999762
    outer loop
      vertex -9.5 5 10.75
      vertex -9.5 -5 10.75
      vertex -9.31462 5 10.754
    endloop
  endfacet
  facet normal -0.0218131 0 0.999762
    outer loop
      vertex -9.5 -5 10.75
      vertex -9.31462 -5 10.754
      vertex -9.31462 5 10.754
    endloop
  endfacet
  facet normal -0.0654045 0 0.997859
    outer loop
      vertex -9.31462 5 10.754
      vertex -9.31462 -5 10.754
      vertex -9.12959 5 10.7662
    endloop
  endfacet
  facet normal -0.0654045 0 0.997859
    outer loop
      vertex -9.31462 -5 10.754
      vertex -9.12959 -5 10.7662
      vertex -9.12959 5 10.7662
    endloop
  endfacet
  facet normal -0.108865 0 0.994057
    outer loop
      vertex -9.12959 5 10.7662
      vertex -9.12959 -5 10.7662
      vertex -8.94526 5 10.7864
    endloop
  endfacet
  facet normal -0.108865 0 0.994057
    outer loop
      vertex -9.12959 -5 10.7662
      vertex -8.94526 -5 10.7864
      vertex -8.94526 5 10.7864
    endloop
  endfacet
  facet normal -0.152124 0 0.988361
    outer loop
      vertex -8.94526 5 10.7864
      vertex -8.94526 -5 10.7864
      vertex -8.762 5 10.8146
    endloop
  endfacet
  facet normal -0.152124 0 0.988361
    outer loop
      vertex -8.94526 -5 10.7864
      vertex -8.762 -5 10.8146
      vertex -8.762 5 10.8146
    endloop
  endfacet
  facet normal -0.195087 0 0.980786
    outer loop
      vertex -8.762 5 10.8146
      vertex -8.762 -5 10.8146
      vertex -8.58013 5 10.8507
    endloop
  endfacet
  facet normal -0.195087 0 0.980786
    outer loop
      vertex -8.762 -5 10.8146
      vertex -8.58013 -5 10.8507
      vertex -8.58013 5 10.8507
    endloop
  endfacet
  facet normal -0.23769 0 0.971341
    outer loop
      vertex -8.58013 5 10.8507
      vertex -8.58013 -5 10.8507
      vertex -8.40002 5 10.8948
    endloop
  endfacet
  facet normal -0.23769 0 0.971341
    outer loop
      vertex -8.58013 -5 10.8507
      vertex -8.40002 -5 10.8948
      vertex -8.40002 5 10.8948
    endloop
  endfacet
  facet normal -0.279829 0 0.96005
    outer loop
      vertex -8.40002 5 10.8948
      vertex -8.40002 -5 10.8948
      vertex -8.222 5 10.9467
    endloop
  endfacet
  facet normal -0.279829 0 0.96005
    outer loop
      vertex -8.40002 -5 10.8948
      vertex -8.222 -5 10.9467
      vertex -8.222 5 10.9467
    endloop
  endfacet
  facet normal -0.321436 0 0.946931
    outer loop
      vertex -8.222 5 10.9467
      vertex -8.222 -5 10.9467
      vertex -8.04641 5 11.0063
    endloop
  endfacet
  facet normal -0.321436 0 0.946931
    outer loop
      vertex -8.222 -5 10.9467
      vertex -8.04641 -5 11.0063
      vertex -8.04641 5 11.0063
    endloop
  endfacet
  facet normal -0.36244 0 0.932007
    outer loop
      vertex -8.04641 5 11.0063
      vertex -8.04641 -5 11.0063
      vertex -7.8736 5 11.0735
    endloop
  endfacet
  facet normal -0.36244 0 0.932007
    outer loop
      vertex -8.04641 -5 11.0063
      vertex -7.8736 -5 11.0735
      vertex -7.8736 5 11.0735
    endloop
  endfacet
  facet normal -0.402746 0 0.915312
    outer loop
      vertex -7.8736 5 11.0735
      vertex -7.8736 -5 11.0735
      vertex -7.70387 5 11.1482
    endloop
  endfacet
  facet normal -0.402746 0 0.915312
    outer loop
      vertex -7.8736 -5 11.0735
      vertex -7.70387 -5 11.1482
      vertex -7.70387 5 11.1482
    endloop
  endfacet
  facet normal -0.44229 0 0.896872
    outer loop
      vertex -7.70387 5 11.1482
      vertex -7.70387 -5 11.1482
      vertex -7.53757 5 11.2302
    endloop
  endfacet
  facet normal -0.44229 0 0.896872
    outer loop
      vertex -7.70387 -5 11.1482
      vertex -7.53757 -5 11.2302
      vertex -7.53757 5 11.2302
    endloop
  endfacet
  facet normal -0.480989 0 0.876727
    outer loop
      vertex -7.53757 5 11.2302
      vertex -7.53757 -5 11.2302
      vertex -7.375 5 11.3194
    endloop
  endfacet
  facet normal -0.480989 0 0.876727
    outer loop
      vertex -7.53757 -5 11.2302
      vertex -7.375 -5 11.3194
      vertex -7.375 5 11.3194
    endloop
  endfacet
  facet normal -0.518774 0 0.854911
    outer loop
      vertex -7.375 5 11.3194
      vertex -7.375 -5 11.3194
      vertex -7.21648 5 11.4156
    endloop
  endfacet
  facet normal -0.518774 0 0.854911
    outer loop
      vertex -7.375 -5 11.3194
      vertex -7.21648 -5 11.4156
      vertex -7.21648 5 11.4156
    endloop
  endfacet
  facet normal -0.555569 0 0.83147
    outer loop
      vertex -7.21648 5 11.4156
      vertex -7.21648 -5 11.4156
      vertex -7.0623 5 11.5186
    endloop
  endfacet
  facet normal -0.555569 0 0.83147
    outer loop
      vertex -7.21648 -5 11.4156
      vertex -7.0623 -5 11.5186
      vertex -7.0623 5 11.5186
    endloop
  endfacet
  facet normal -0.59131 0 0.806445
    outer loop
      vertex -7.0623 5 11.5186
      vertex -7.0623 -5 11.5186
      vertex -6.91276 5 11.6282
    endloop
  endfacet
  facet normal -0.59131 0 0.806445
    outer loop
      vertex -7.0623 -5 11.5186
      vertex -6.91276 -5 11.6282
      vertex -6.91276 5 11.6282
    endloop
  endfacet
  facet normal -0.625922 0 0.779885
    outer loop
      vertex -6.91276 5 11.6282
      vertex -6.91276 -5 11.6282
      vertex -6.76815 5 11.7443
    endloop
  endfacet
  facet normal -0.625922 0 0.779885
    outer loop
      vertex -6.91276 -5 11.6282
      vertex -6.76815 -5 11.7443
      vertex -6.76815 5 11.7443
    endloop
  endfacet
  facet normal -0.659346 0 0.75184
    outer loop
      vertex -6.76815 5 11.7443
      vertex -6.76815 -5 11.7443
      vertex -6.62874 5 11.8666
    endloop
  endfacet
  facet normal -0.659346 0 0.75184
    outer loop
      vertex -6.76815 -5 11.7443
      vertex -6.62874 -5 11.8666
      vertex -6.62874 5 11.8666
    endloop
  endfacet
  facet normal -0.691513 0 0.722364
    outer loop
      vertex -6.62874 5 11.8666
      vertex -6.62874 -5 11.8666
      vertex -6.4948 5 11.9948
    endloop
  endfacet
  facet normal -0.691513 0 0.722364
    outer loop
      vertex -6.62874 -5 11.8666
      vertex -6.4948 -5 11.9948
      vertex -6.4948 5 11.9948
    endloop
  endfacet
  facet normal -0.722364 0 0.691513
    outer loop
      vertex -6.4948 5 11.9948
      vertex -6.4948 -5 11.9948
      vertex -6.36657 5 12.1287
    endloop
  endfacet
  facet normal -0.722364 0 0.691513
    outer loop
      vertex -6.4948 -5 11.9948
      vertex -6.36657 -5 12.1287
      vertex -6.36657 5 12.1287
    endloop
  endfacet
  facet normal -0.751841 0 0.659345
    outer loop
      vertex -6.36657 5 12.1287
      vertex -6.36657 -5 12.1287
      vertex -6.24431 5 12.2682
    endloop
  endfacet
  facet normal -0.751841 0 0.659345
    outer loop
      vertex -6.36657 -5 12.1287
      vertex -6.24431 -5 12.2682
      vertex -6.24431 5 12.2682
    endloop
  endfacet
  facet normal -0.779884 0 0.625924
    outer loop
      vertex -6.24431 5 12.2682
      vertex -6.24431 -5 12.2682
      vertex -6.12825 5 12.4128
    endloop
  endfacet
  facet normal -0.779884 0 0.625924
    outer loop
      vertex -6.24431 -5 12.2682
      vertex -6.12825 -5 12.4128
      vertex -6.12825 5 12.4128
    endloop
  endfacet
  facet normal -0.806444 0 0.591311
    outer loop
      vertex -6.12825 5 12.4128
      vertex -6.12825 -5 12.4128
      vertex -6.0186 5 12.5623
    endloop
  endfacet
  facet normal -0.806444 0 0.591311
    outer loop
      vertex -6.12825 -5 12.4128
      vertex -6.0186 -5 12.5623
      vertex -6.0186 5 12.5623
    endloop
  endfacet
  facet normal -0.83147 0 0.555569
    outer loop
      vertex -6.0186 5 12.5623
      vertex -6.0186 -5 12.5623
      vertex -5.91559 5 12.7165
    endloop
  endfacet
  facet normal -0.83147 0 0.555569
    outer loop
      vertex -6.0186 -5 12.5623
      vertex -5.91559 -5 12.7165
      vertex -5.91559 5 12.7165
    endloop
  endfacet
  facet normal -0.854911 0 0.518774
    outer loop
      vertex -5.91559 5 12.7165
      vertex -5.91559 -5 12.7165
      vertex -5.81939 5 12.875
    endloop
  endfacet
  facet normal -0.854911 0 0.518774
    outer loop
      vertex -5.91559 -5 12.7165
      vertex -5.81939 -5 12.875
      vertex -5.81939 5 12.875
    endloop
  endfacet
  facet normal -0.876726 0 0.48099
    outer loop
      vertex -5.81939 5 12.875
      vertex -5.81939 -5 12.875
      vertex -5.7302 5 13.0376
    endloop
  endfacet
  facet normal -0.876726 0 0.48099
    outer loop
      vertex -5.81939 -5 12.875
      vertex -5.7302 -5 13.0376
      vertex -5.7302 5 13.0376
    endloop
  endfacet
  facet normal -0.896874 0 0.442287
    outer loop
      vertex -5.7302 5 13.0376
      vertex -5.7302 -5 13.0376
      vertex -5.64819 5 13.2039
    endloop
  endfacet
  facet normal -0.896874 0 0.442287
    outer loop
      vertex -5.7302 -5 13.0376
      vertex -5.64819 -5 13.2039
      vertex -5.64819 5 13.2039
    endloop
  endfacet
  facet normal -0.915312 0 0.402746
    outer loop
      vertex -5.64819 5 13.2039
      vertex -5.64819 -5 13.2039
      vertex -5.57351 5 13.3736
    endloop
  endfacet
  facet normal -0.915312 0 0.402746
    outer loop
      vertex -5.64819 -5 13.2039
      vertex -5.57351 -5 13.3736
      vertex -5.57351 5 13.3736
    endloop
  endfacet
  facet normal -0.932008 0 0.362438
    outer loop
      vertex -5.57351 5 13.3736
      vertex -5.57351 -5 13.3736
      vertex -5.50631 5 13.5464
    endloop
  endfacet
  facet normal -0.932008 0 0.362438
    outer loop
      vertex -5.57351 -5 13.3736
      vertex -5.50631 -5 13.5464
      vertex -5.50631 5 13.5464
    endloop
  endfacet
  facet normal -0.94693 0 0.321439
    outer loop
      vertex -5.50631 5 13.5464
      vertex -5.50631 -5 13.5464
      vertex -5.4467 5 13.722
    endloop
  endfacet
  facet normal -0.94693 0 0.321439
    outer loop
      vertex -5.50631 -5 13.5464
      vertex -5.4467 -5 13.722
      vertex -5.4467 5 13.722
    endloop
  endfacet
  facet normal -0.96005 0 0.279829
    outer loop
      vertex -5.4467 5 13.722
      vertex -5.4467 -5 13.722
      vertex -5.39482 5 13.9
    endloop
  endfacet
  facet normal -0.96005 0 0.279829
    outer loop
      vertex -5.4467 -5 13.722
      vertex -5.39482 -5 13.9
      vertex -5.39482 5 13.9
    endloop
  endfacet
  facet normal -0.971342 0 0.237687
    outer loop
      vertex -5.39482 5 13.9
      vertex -5.39482 -5 13.9
      vertex -5.35074 5 14.0801
    endloop
  endfacet
  facet normal -0.971342 0 0.237687
    outer loop
      vertex -5.39482 -5 13.9
      vertex -5.35074 -5 14.0801
      vertex -5.35074 5 14.0801
    endloop
  endfacet
  facet normal -0.980785 0 0.19509
    outer loop
      vertex -5.35074 5 14.0801
      vertex -5.35074 -5 14.0801
      vertex -5.31457 5 14.262
    endloop
  endfacet
  facet normal -0.980785 0 0.19509
    outer loop
      vertex -5.35074 -5 14.0801
      vertex -5.31457 -5 14.262
      vertex -5.31457 5 14.262
    endloop
  endfacet
  facet normal -0.988361 0 0.152124
    outer loop
      vertex -5.31457 5 14.262
      vertex -5.31457 -5 14.262
      vertex -5.28636 5 14.4453
    endloop
  endfacet
  facet normal -0.988361 0 0.152124
    outer loop
      vertex -5.31457 -5 14.262
      vertex -5.28636 -5 14.4453
      vertex -5.28636 5 14.4453
    endloop
  endfacet
  facet normal -0.994056 0 0.108867
    outer loop
      vertex -5.28636 5 14.4453
      vertex -5.28636 -5 14.4453
      vertex -5.26617 5 14.6296
    endloop
  endfacet
  facet normal -0.994056 0 0.108867
    outer loop
      vertex -5.28636 -5 14.4453
      vertex -5.26617 -5 14.6296
      vertex -5.26617 5 14.6296
    endloop
  endfacet
  facet normal -0.997859 0 0.0654017
    outer loop
      vertex -5.26617 5 14.6296
      vertex -5.26617 -5 14.6296
      vertex -5.25405 5 14.8146
    endloop
  endfacet
  facet normal -0.997859 0 0.0654017
    outer loop
      vertex -5.26617 -5 14.6296
      vertex -5.25405 -5 14.8146
      vertex -5.25405 5 14.8146
    endloop
  endfacet
  facet normal -0.999762 0 0.0218157
    outer loop
      vertex -5.25405 5 14.8146
      vertex -5.25405 -5 14.8146
      vertex -5.25 5 15
    endloop
  endfacet
  facet normal -0.999762 0 0.0218157
    outer loop
      vertex -5.25405 -5 14.8146
      vertex -5.25 -5 15
      vertex -5.25 5 15
    endloop
  endfacet
  facet normal -0.999762 0 -0.0218156
    outer loop
      vertex -5.25 5 15
      vertex -5.25 -5 15
      vertex -5.25405 5 15.1854
    endloop
  endfacet
  facet normal -0.999762 0 -0.0218156
    outer loop
      vertex -5.25 -5 15
      vertex -5.25405 -5 15.1854
      vertex -5.25405 5 15.1854
    endloop
  endfacet
  facet normal -0.997859 0 -0.0654017
    outer loop
      vertex -5.25405 5 15.1854
      vertex -5.25405 -5 15.1854
      vertex -5.26617 5 15.3704
    endloop
  endfacet
  facet normal -0.997859 0 -0.0654017
    outer loop
      vertex -5.25405 -5 15.1854
      vertex -5.26617 -5 15.3704
      vertex -5.26617 5 15.3704
    endloop
  endfacet
  facet normal -0.994056 0 -0.108867
    outer loop
      vertex -5.26617 5 15.3704
      vertex -5.26617 -5 15.3704
      vertex -5.28636 5 15.5547
    endloop
  endfacet
  facet normal -0.994056 0 -0.108867
    outer loop
      vertex -5.26617 -5 15.3704
      vertex -5.28636 -5 15.5547
      vertex -5.28636 5 15.5547
    endloop
  endfacet
  facet normal -0.988361 0 -0.152124
    outer loop
      vertex -5.28636 5 15.5547
      vertex -5.28636 -5 15.5547
      vertex -5.31457 5 15.738
    endloop
  endfacet
  facet normal -0.988361 0 -0.152124
    outer loop
      vertex -5.28636 -5 15.5547
      vertex -5.31457 -5 15.738
      vertex -5.31457 5 15.738
    endloop
  endfacet
  facet normal -0.980785 0 -0.195091
    outer loop
      vertex -5.31457 5 15.738
      vertex -5.31457 -5 15.738
      vertex -5.35074 5 15.9199
    endloop
  endfacet
  facet normal -0.980785 0 -0.195091
    outer loop
      vertex -5.31457 -5 15.738
      vertex -5.35074 -5 15.9199
      vertex -5.35074 5 15.9199
    endloop
  endfacet
  facet normal -0.971342 0 -0.237687
    outer loop
      vertex -5.35074 5 15.9199
      vertex -5.35074 -5 15.9199
      vertex -5.39482 5 16.1
    endloop
  endfacet
  facet normal -0.971342 0 -0.237687
    outer loop
      vertex -5.35074 -5 15.9199
      vertex -5.39482 -5 16.1
      vertex -5.39482 5 16.1
    endloop
  endfacet
  facet normal -0.960051 0 -0.279826
    outer loop
      vertex -5.39482 5 16.1
      vertex -5.39482 -5 16.1
      vertex -5.4467 5 16.278
    endloop
  endfacet
  facet normal -0.960051 0 -0.279826
    outer loop
      vertex -5.39482 -5 16.1
      vertex -5.4467 -5 16.278
      vertex -5.4467 5 16.278
    endloop
  endfacet
  facet normal -0.94693 0 -0.321439
    outer loop
      vertex -5.4467 5 16.278
      vertex -5.4467 -5 16.278
      vertex -5.50631 5 16.4536
    endloop
  endfacet
  facet normal -0.94693 0 -0.321439
    outer loop
      vertex -5.4467 -5 16.278
      vertex -5.50631 -5 16.4536
      vertex -5.50631 5 16.4536
    endloop
  endfacet
  facet normal -0.932007 0 -0.36244
    outer loop
      vertex -5.50631 5 16.4536
      vertex -5.50631 -5 16.4536
      vertex -5.57351 5 16.6264
    endloop
  endfacet
  facet normal -0.932007 0 -0.36244
    outer loop
      vertex -5.50631 -5 16.4536
      vertex -5.57351 -5 16.6264
      vertex -5.57351 5 16.6264
    endloop
  endfacet
  facet normal -0.915311 0 -0.402748
    outer loop
      vertex -5.57351 5 16.6264
      vertex -5.57351 -5 16.6264
      vertex -5.64819 5 16.7961
    endloop
  endfacet
  facet normal -0.915311 0 -0.402748
    outer loop
      vertex -5.57351 -5 16.6264
      vertex -5.64819 -5 16.7961
      vertex -5.64819 5 16.7961
    endloop
  endfacet
  facet normal -0.896874 0 -0.442287
    outer loop
      vertex -5.64819 5 16.7961
      vertex -5.64819 -5 16.7961
      vertex -5.7302 5 16.9624
    endloop
  endfacet
  facet normal -0.896874 0 -0.442287
    outer loop
      vertex -5.64819 -5 16.7961
      vertex -5.7302 -5 16.9624
      vertex -5.7302 5 16.9624
    endloop
  endfacet
  facet normal -0.876726 0 -0.48099
    outer loop
      vertex -5.7302 5 16.9624
      vertex -5.7302 -5 16.9624
      vertex -5.81939 5 17.125
    endloop
  endfacet
  facet normal -0.876726 0 -0.48099
    outer loop
      vertex -5.7302 -5 16.9624
      vertex -5.81939 -5 17.125
      vertex -5.81939 5 17.125
    endloop
  endfacet
  facet normal -0.854913 0 -0.518772
    outer loop
      vertex -5.81939 5 17.125
      vertex -5.81939 -5 17.125
      vertex -5.91559 5 17.2835
    endloop
  endfacet
  facet normal -0.854913 0 -0.518772
    outer loop
      vertex -5.81939 -5 17.125
      vertex -5.91559 -5 17.2835
      vertex -5.91559 5 17.2835
    endloop
  endfacet
  facet normal -0.83147 0 -0.555569
    outer loop
      vertex -5.91559 5 17.2835
      vertex -5.91559 -5 17.2835
      vertex -6.0186 5 17.4377
    endloop
  endfacet
  facet normal -0.83147 0 -0.555569
    outer loop
      vertex -5.91559 -5 17.2835
      vertex -6.0186 -5 17.4377
      vertex -6.0186 5 17.4377
    endloop
  endfacet
  facet normal -0.806442 0 -0.591313
    outer loop
      vertex -6.0186 5 17.4377
      vertex -6.0186 -5 17.4377
      vertex -6.12825 5 17.5872
    endloop
  endfacet
  facet normal -0.806442 0 -0.591313
    outer loop
      vertex -6.0186 -5 17.4377
      vertex -6.12825 -5 17.5872
      vertex -6.12825 5 17.5872
    endloop
  endfacet
  facet normal -0.779886 0 -0.625921
    outer loop
      vertex -6.12825 5 17.5872
      vertex -6.12825 -5 17.5872
      vertex -6.24431 5 17.7318
    endloop
  endfacet
  facet normal -0.779886 0 -0.625921
    outer loop
      vertex -6.12825 -5 17.5872
      vertex -6.24431 -5 17.7318
      vertex -6.24431 5 17.7318
    endloop
  endfacet
  facet normal -0.751841 0 -0.659345
    outer loop
      vertex -6.24431 5 17.7318
      vertex -6.24431 -5 17.7318
      vertex -6.36657 5 17.8713
    endloop
  endfacet
  facet normal -0.751841 0 -0.659345
    outer loop
      vertex -6.24431 -5 17.7318
      vertex -6.36657 -5 17.8713
      vertex -6.36657 5 17.8713
    endloop
  endfacet
  facet normal -0.722362 0 -0.691515
    outer loop
      vertex -6.36657 5 17.8713
      vertex -6.36657 -5 17.8713
      vertex -6.4948 5 18.0052
    endloop
  endfacet
  facet normal -0.722362 0 -0.691515
    outer loop
      vertex -6.36657 -5 17.8713
      vertex -6.4948 -5 18.0052
      vertex -6.4948 5 18.0052
    endloop
  endfacet
  facet normal -0.691513 0 -0.722364
    outer loop
      vertex -6.4948 5 18.0052
      vertex -6.4948 -5 18.0052
      vertex -6.62874 5 18.1334
    endloop
  endfacet
  facet normal -0.691513 0 -0.722364
    outer loop
      vertex -6.4948 -5 18.0052
      vertex -6.62874 -5 18.1334
      vertex -6.62874 5 18.1334
    endloop
  endfacet
  facet normal -0.659346 0 -0.75184
    outer loop
      vertex -6.62874 5 18.1334
      vertex -6.62874 -5 18.1334
      vertex -6.76815 5 18.2557
    endloop
  endfacet
  facet normal -0.659346 0 -0.75184
    outer loop
      vertex -6.62874 -5 18.1334
      vertex -6.76815 -5 18.2557
      vertex -6.76815 5 18.2557
    endloop
  endfacet
  facet normal -0.625925 0 -0.779883
    outer loop
      vertex -6.76815 5 18.2557
      vertex -6.76815 -5 18.2557
      vertex -6.91276 5 18.3718
    endloop
  endfacet
  facet normal -0.625925 0 -0.779883
    outer loop
      vertex -6.76815 -5 18.2557
      vertex -6.91276 -5 18.3718
      vertex -6.91276 5 18.3718
    endloop
  endfacet
  facet normal -0.59131 0 -0.806445
    outer loop
      vertex -6.91276 5 18.3718
      vertex -6.91276 -5 18.3718
      vertex -7.0623 5 18.4814
    endloop
  endfacet
  facet normal -0.59131 0 -0.806445
    outer loop
      vertex -6.91276 -5 18.3718
      vertex -7.0623 -5 18.4814
      vertex -7.0623 5 18.4814
    endloop
  endfacet
  facet normal -0.555569 0 -0.83147
    outer loop
      vertex -7.0623 5 18.4814
      vertex -7.0623 -5 18.4814
      vertex -7.21648 5 18.5844
    endloop
  endfacet
  facet normal -0.555569 0 -0.83147
    outer loop
      vertex -7.0623 -5 18.4814
      vertex -7.21648 -5 18.5844
      vertex -7.21648 5 18.5844
    endloop
  endfacet
  facet normal -0.518774 0 -0.854911
    outer loop
      vertex -7.21648 5 18.5844
      vertex -7.21648 -5 18.5844
      vertex -7.375 5 18.6806
    endloop
  endfacet
  facet normal -0.518774 0 -0.854911
    outer loop
      vertex -7.21648 -5 18.5844
      vertex -7.375 -5 18.6806
      vertex -7.375 5 18.6806
    endloop
  endfacet
  facet normal -0.480993 0 -0.876725
    outer loop
      vertex -7.375 5 18.6806
      vertex -7.375 -5 18.6806
      vertex -7.53757 5 18.7698
    endloop
  endfacet
  facet normal -0.480993 0 -0.876725
    outer loop
      vertex -7.375 -5 18.6806
      vertex -7.53757 -5 18.7698
      vertex -7.53757 5 18.7698
    endloop
  endfacet
  facet normal -0.442282 0 -0.896876
    outer loop
      vertex -7.53757 5 18.7698
      vertex -7.53757 -5 18.7698
      vertex -7.70387 5 18.8518
    endloop
  endfacet
  facet normal -0.442282 0 -0.896876
    outer loop
      vertex -7.53757 -5 18.7698
      vertex -7.70387 -5 18.8518
      vertex -7.70387 5 18.8518
    endloop
  endfacet
  facet normal -0.402751 0 -0.91531
    outer loop
      vertex -7.70387 5 18.8518
      vertex -7.70387 -5 18.8518
      vertex -7.8736 5 18.9265
    endloop
  endfacet
  facet normal -0.402751 0 -0.91531
    outer loop
      vertex -7.70387 -5 18.8518
      vertex -7.8736 -5 18.9265
      vertex -7.8736 5 18.9265
    endloop
  endfacet
  facet normal -0.36244 0 -0.932007
    outer loop
      vertex -7.8736 5 18.9265
      vertex -7.8736 -5 18.9265
      vertex -8.04641 5 18.9937
    endloop
  endfacet
  facet normal -0.36244 0 -0.932007
    outer loop
      vertex -7.8736 -5 18.9265
      vertex -8.04641 -5 18.9937
      vertex -8.04641 5 18.9937
    endloop
  endfacet
  facet normal -0.321436 0 -0.946931
    outer loop
      vertex -8.04641 5 18.9937
      vertex -8.04641 -5 18.9937
      vertex -8.222 5 19.0533
    endloop
  endfacet
  facet normal -0.321436 0 -0.946931
    outer loop
      vertex -8.04641 -5 18.9937
      vertex -8.222 -5 19.0533
      vertex -8.222 5 19.0533
    endloop
  endfacet
  facet normal -0.279829 0 -0.96005
    outer loop
      vertex -8.222 5 19.0533
      vertex -8.222 -5 19.0533
      vertex -8.40002 5 19.1052
    endloop
  endfacet
  facet normal -0.279829 0 -0.96005
    outer loop
      vertex -8.222 -5 19.0533
      vertex -8.40002 -5 19.1052
      vertex -8.40002 5 19.1052
    endloop
  endfacet
  facet normal -0.23769 0 -0.971341
    outer loop
      vertex -8.40002 5 19.1052
      vertex -8.40002 -5 19.1052
      vertex -8.58013 5 19.1493
    endloop
  endfacet
  facet normal -0.23769 0 -0.971341
    outer loop
      vertex -8.40002 -5 19.1052
      vertex -8.58013 -5 19.1493
      vertex -8.58013 5 19.1493
    endloop
  endfacet
  facet normal -0.195087 0 -0.980786
    outer loop
      vertex -8.58013 5 19.1493
      vertex -8.58013 -5 19.1493
      vertex -8.762 5 19.1854
    endloop
  endfacet
  facet normal -0.195087 0 -0.980786
    outer loop
      vertex -8.58013 -5 19.1493
      vertex -8.762 -5 19.1854
      vertex -8.762 5 19.1854
    endloop
  endfacet
  facet normal -0.152124 0 -0.988361
    outer loop
      vertex -8.762 5 19.1854
      vertex -8.762 -5 19.1854
      vertex -8.94526 5 19.2136
    endloop
  endfacet
  facet normal -0.152124 0 -0.988361
    outer loop
      vertex -8.762 -5 19.1854
      vertex -8.94526 -5 19.2136
      vertex -8.94526 5 19.2136
    endloop
  endfacet
  facet normal -0.10886 0 -0.994057
    outer loop
      vertex -8.94526 5 19.2136
      vertex -8.94526 -5 19.2136
      vertex -9.12959 5 19.2338
    endloop
  endfacet
  facet normal -0.10886 0 -0.994057
    outer loop
      vertex -8.94526 -5 19.2136
      vertex -9.12959 -5 19.2338
      vertex -9.12959 5 19.2338
    endloop
  endfacet
  facet normal -0.0654045 0 -0.997859
    outer loop
      vertex -9.12959 5 19.2338
      vertex -9.12959 -5 19.2338
      vertex -9.31462 5 19.246
    endloop
  endfacet
  facet normal -0.0654045 0 -0.997859
    outer loop
      vertex -9.12959 -5 19.2338
      vertex -9.31462 -5 19.246
      vertex -9.31462 5 19.246
    endloop
  endfacet
  facet normal -0.0218181 0 -0.999762
    outer loop
      vertex -9.31462 5 19.246
      vertex -9.31462 -5 19.246
      vertex -9.5 5 19.25
    endloop
  endfacet
  facet normal -0.0218181 0 -0.999762
    outer loop
      vertex -9.31462 -5 19.246
      vertex -9.5 -5 19.25
      vertex -9.5 5 19.25
    endloop
  endfacet
  facet normal 0.0218181 0 -0.999762
    outer loop
      vertex -9.5 5 19.25
      vertex -9.5 -5 19.25
      vertex -9.68538 5 19.246
    endloop
  endfacet
  facet normal 0.0218181 0 -0.999762
    outer loop
      vertex -9.5 -5 19.25
      vertex -9.68538 -5 19.246
      vertex -9.68538 5 19.246
    endloop
  endfacet
  facet normal 0.0654042 0 -0.997859
    outer loop
      vertex -9.68538 5 19.246
      vertex -9.68538 -5 19.246
      vertex -9.87041 5 19.2338
    endloop
  endfacet
  facet normal 0.0654042 0 -0.997859
    outer loop
      vertex -9.68538 -5 19.246
      vertex -9.87041 -5 19.2338
      vertex -9.87041 5 19.2338
    endloop
  endfacet
  facet normal 0.10886 0 -0.994057
    outer loop
      vertex -9.87041 5 19.2338
      vertex -9.87041 -5 19.2338
      vertex -10.0547 5 19.2136
    endloop
  endfacet
  facet normal 0.10886 0 -0.994057
    outer loop
      vertex -9.87041 -5 19.2338
      vertex -10.0547 -5 19.2136
      vertex -10.0547 5 19.2136
    endloop
  endfacet
  facet normal 0.152124 0 -0.988361
    outer loop
      vertex -10.0547 5 19.2136
      vertex -10.0547 -5 19.2136
      vertex -10.238 5 19.1854
    endloop
  endfacet
  facet normal 0.152124 0 -0.988361
    outer loop
      vertex -10.0547 -5 19.2136
      vertex -10.238 -5 19.1854
      vertex -10.238 5 19.1854
    endloop
  endfacet
  facet normal 0.195088 0 -0.980786
    outer loop
      vertex -10.238 5 19.1854
      vertex -10.238 -5 19.1854
      vertex -10.4199 5 19.1493
    endloop
  endfacet
  facet normal 0.195088 0 -0.980786
    outer loop
      vertex -10.238 -5 19.1854
      vertex -10.4199 -5 19.1493
      vertex -10.4199 5 19.1493
    endloop
  endfacet
  facet normal 0.237688 0 -0.971341
    outer loop
      vertex -10.4199 5 19.1493
      vertex -10.4199 -5 19.1493
      vertex -10.6 5 19.1052
    endloop
  endfacet
  facet normal 0.237688 0 -0.971341
    outer loop
      vertex -10.4199 -5 19.1493
      vertex -10.6 -5 19.1052
      vertex -10.6 5 19.1052
    endloop
  endfacet
  facet normal 0.279829 0 -0.96005
    outer loop
      vertex -10.6 5 19.1052
      vertex -10.6 -5 19.1052
      vertex -10.778 5 19.0533
    endloop
  endfacet
  facet normal 0.279829 0 -0.96005
    outer loop
      vertex -10.6 -5 19.1052
      vertex -10.778 -5 19.0533
      vertex -10.778 5 19.0533
    endloop
  endfacet
  facet normal 0.321436 0 -0.946931
    outer loop
      vertex -10.778 5 19.0533
      vertex -10.778 -5 19.0533
      vertex -10.9536 5 18.9937
    endloop
  endfacet
  facet normal 0.321436 0 -0.946931
    outer loop
      vertex -10.778 -5 19.0533
      vertex -10.9536 -5 18.9937
      vertex -10.9536 5 18.9937
    endloop
  endfacet
  facet normal 0.36244 0 -0.932007
    outer loop
      vertex -10.9536 5 18.9937
      vertex -10.9536 -5 18.9937
      vertex -11.1264 5 18.9265
    endloop
  endfacet
  facet normal 0.36244 0 -0.932007
    outer loop
      vertex -10.9536 -5 18.9937
      vertex -11.1264 -5 18.9265
      vertex -11.1264 5 18.9265
    endloop
  endfacet
  facet normal 0.402751 0 -0.91531
    outer loop
      vertex -11.1264 5 18.9265
      vertex -11.1264 -5 18.9265
      vertex -11.2961 5 18.8518
    endloop
  endfacet
  facet normal 0.402751 0 -0.91531
    outer loop
      vertex -11.1264 -5 18.9265
      vertex -11.2961 -5 18.8518
      vertex -11.2961 5 18.8518
    endloop
  endfacet
  facet normal 0.442283 0 -0.896876
    outer loop
      vertex -11.2961 5 18.8518
      vertex -11.2961 -5 18.8518
      vertex -11.4624 5 18.7698
    endloop
  endfacet
  facet normal 0.442283 0 -0.896876
    outer loop
      vertex -11.2961 -5 18.8518
      vertex -11.4624 -5 18.7698
      vertex -11.4624 5 18.7698
    endloop
  endfacet
  facet normal 0.480992 0 -0.876725
    outer loop
      vertex -11.4624 5 18.7698
      vertex -11.4624 -5 18.7698
      vertex -11.625 5 18.6806
    endloop
  endfacet
  facet normal 0.480992 0 -0.876725
    outer loop
      vertex -11.4624 -5 18.7698
      vertex -11.625 -5 18.6806
      vertex -11.625 5 18.6806
    endloop
  endfacet
  facet normal 0.518774 0 -0.854911
    outer loop
      vertex -11.625 5 18.6806
      vertex -11.625 -5 18.6806
      vertex -11.7835 5 18.5844
    endloop
  endfacet
  facet normal 0.518774 0 -0.854911
    outer loop
      vertex -11.625 -5 18.6806
      vertex -11.7835 -5 18.5844
      vertex -11.7835 5 18.5844
    endloop
  endfacet
  facet normal 0.555569 0 -0.83147
    outer loop
      vertex -11.7835 5 18.5844
      vertex -11.7835 -5 18.5844
      vertex -11.9377 5 18.4814
    endloop
  endfacet
  facet normal 0.555569 0 -0.83147
    outer loop
      vertex -11.7835 -5 18.5844
      vertex -11.9377 -5 18.4814
      vertex -11.9377 5 18.4814
    endloop
  endfacet
  facet normal 0.591311 0 -0.806444
    outer loop
      vertex -11.9377 5 18.4814
      vertex -11.9377 -5 18.4814
      vertex -12.0872 5 18.3718
    endloop
  endfacet
  facet normal 0.591311 0 -0.806444
    outer loop
      vertex -11.9377 -5 18.4814
      vertex -12.0872 -5 18.3718
      vertex -12.0872 5 18.3718
    endloop
  endfacet
  facet normal 0.625925 0 -0.779883
    outer loop
      vertex -12.0872 5 18.3718
      vertex -12.0872 -5 18.3718
      vertex -12.2318 5 18.2557
    endloop
  endfacet
  facet normal 0.625925 0 -0.779883
    outer loop
      vertex -12.0872 -5 18.3718
      vertex -12.2318 -5 18.2557
      vertex -12.2318 5 18.2557
    endloop
  endfacet
  facet normal 0.659345 0 -0.751841
    outer loop
      vertex -12.2318 5 18.2557
      vertex -12.2318 -5 18.2557
      vertex -12.3713 5 18.1334
    endloop
  endfacet
  facet normal 0.659345 0 -0.751841
    outer loop
      vertex -12.2318 -5 18.2557
      vertex -12.3713 -5 18.1334
      vertex -12.3713 5 18.1334
    endloop
  endfacet
  facet normal 0.691514 0 -0.722363
    outer loop
      vertex -12.3713 5 18.1334
      vertex -12.3713 -5 18.1334
      vertex -12.5052 5 18.0052
    endloop
  endfacet
  facet normal 0.691514 0 -0.722363
    outer loop
      vertex -12.3713 -5 18.1334
      vertex -12.5052 -5 18.0052
      vertex -12.5052 5 18.0052
    endloop
  endfacet
  facet normal 0.72236 0 -0.691517
    outer loop
      vertex -12.5052 5 18.0052
      vertex -12.5052 -5 18.0052
      vertex -12.6334 5 17.8713
    endloop
  endfacet
  facet normal 0.72236 0 -0.691517
    outer loop
      vertex -12.5052 -5 18.0052
      vertex -12.6334 -5 17.8713
      vertex -12.6334 5 17.8713
    endloop
  endfacet
  facet normal 0.751841 0 -0.659345
    outer loop
      vertex -12.6334 5 17.8713
      vertex -12.6334 -5 17.8713
      vertex -12.7557 5 17.7318
    endloop
  endfacet
  facet normal 0.751841 0 -0.659345
    outer loop
      vertex -12.6334 -5 17.8713
      vertex -12.7557 -5 17.7318
      vertex -12.7557 5 17.7318
    endloop
  endfacet
  facet normal 0.779887 0 -0.62592
    outer loop
      vertex -12.7557 5 17.7318
      vertex -12.7557 -5 17.7318
      vertex -12.8718 5 17.5872
    endloop
  endfacet
  facet normal 0.779887 0 -0.62592
    outer loop
      vertex -12.7557 -5 17.7318
      vertex -12.8718 -5 17.5872
      vertex -12.8718 5 17.5872
    endloop
  endfacet
  facet normal 0.806442 0 -0.591313
    outer loop
      vertex -12.8718 5 17.5872
      vertex -12.8718 -5 17.5872
      vertex -12.9814 5 17.4377
    endloop
  endfacet
  facet normal 0.806442 0 -0.591313
    outer loop
      vertex -12.8718 -5 17.5872
      vertex -12.9814 -5 17.4377
      vertex -12.9814 5 17.4377
    endloop
  endfacet
  facet normal 0.83147 0 -0.555569
    outer loop
      vertex -12.9814 5 17.4377
      vertex -12.9814 -5 17.4377
      vertex -13.0844 5 17.2835
    endloop
  endfacet
  facet normal 0.83147 0 -0.555569
    outer loop
      vertex -12.9814 -5 17.4377
      vertex -13.0844 -5 17.2835
      vertex -13.0844 5 17.2835
    endloop
  endfacet
  facet normal 0.854913 0 -0.518772
    outer loop
      vertex -13.0844 5 17.2835
      vertex -13.0844 -5 17.2835
      vertex -13.1806 5 17.125
    endloop
  endfacet
  facet normal 0.854913 0 -0.518772
    outer loop
      vertex -13.0844 -5 17.2835
      vertex -13.1806 -5 17.125
      vertex -13.1806 5 17.125
    endloop
  endfacet
  facet normal 0.876726 0 -0.48099
    outer loop
      vertex -13.1806 5 17.125
      vertex -13.1806 -5 17.125
      vertex -13.2698 5 16.9624
    endloop
  endfacet
  facet normal 0.876726 0 -0.48099
    outer loop
      vertex -13.1806 -5 17.125
      vertex -13.2698 -5 16.9624
      vertex -13.2698 5 16.9624
    endloop
  endfacet
  facet normal 0.896873 0 -0.442289
    outer loop
      vertex -13.2698 5 16.9624
      vertex -13.2698 -5 16.9624
      vertex -13.3518 5 16.7961
    endloop
  endfacet
  facet normal 0.896873 0 -0.442289
    outer loop
      vertex -13.2698 -5 16.9624
      vertex -13.3518 -5 16.7961
      vertex -13.3518 5 16.7961
    endloop
  endfacet
  facet normal 0.915311 0 -0.402748
    outer loop
      vertex -13.3518 5 16.7961
      vertex -13.3518 -5 16.7961
      vertex -13.4265 5 16.6264
    endloop
  endfacet
  facet normal 0.915311 0 -0.402748
    outer loop
      vertex -13.3518 -5 16.7961
      vertex -13.4265 -5 16.6264
      vertex -13.4265 5 16.6264
    endloop
  endfacet
  facet normal 0.932008 0 -0.362438
    outer loop
      vertex -13.4265 5 16.6264
      vertex -13.4265 -5 16.6264
      vertex -13.4937 5 16.4536
    endloop
  endfacet
  facet normal 0.932008 0 -0.362438
    outer loop
      vertex -13.4265 -5 16.6264
      vertex -13.4937 -5 16.4536
      vertex -13.4937 5 16.4536
    endloop
  endfacet
  facet normal 0.94693 0 -0.321441
    outer loop
      vertex -13.4937 5 16.4536
      vertex -13.4937 -5 16.4536
      vertex -13.5533 5 16.278
    endloop
  endfacet
  facet normal 0.94693 0 -0.321441
    outer loop
      vertex -13.4937 -5 16.4536
      vertex -13.5533 -5 16.278
      vertex -13.5533 5 16.278
    endloop
  endfacet
  facet normal 0.960051 0 -0.279826
    outer loop
      vertex -13.5533 5 16.278
      vertex -13.5533 -5 16.278
      vertex -13.6052 5 16.1
    endloop
  endfacet
  facet normal 0.960051 0 -0.279826
    outer loop
      vertex -13.5533 -5 16.278
      vertex -13.6052 -5 16.1
      vertex -13.6052 5 16.1
    endloop
  endfacet
  facet normal 0.971342 0 -0.237685
    outer loop
      vertex -13.6052 5 16.1
      vertex -13.6052 -5 16.1
      vertex -13.6493 5 15.9199
    endloop
  endfacet
  facet normal 0.971342 0 -0.237685
    outer loop
      vertex -13.6052 -5 16.1
      vertex -13.6493 -5 15.9199
      vertex -13.6493 5 15.9199
    endloop
  endfacet
  facet normal 0.980785 0 -0.195093
    outer loop
      vertex -13.6493 5 15.9199
      vertex -13.6493 -5 15.9199
      vertex -13.6854 5 15.738
    endloop
  endfacet
  facet normal 0.980785 0 -0.195093
    outer loop
      vertex -13.6493 -5 15.9199
      vertex -13.6854 -5 15.738
      vertex -13.6854 5 15.738
    endloop
  endfacet
  facet normal 0.988361 0 -0.152124
    outer loop
      vertex -13.6854 5 15.738
      vertex -13.6854 -5 15.738
      vertex -13.7136 5 15.5547
    endloop
  endfacet
  facet normal 0.988361 0 -0.152124
    outer loop
      vertex -13.6854 -5 15.738
      vertex -13.7136 -5 15.5547
      vertex -13.7136 5 15.5547
    endloop
  endfacet
  facet normal 0.994057 0 -0.108865
    outer loop
      vertex -13.7136 5 15.5547
      vertex -13.7136 -5 15.5547
      vertex -13.7338 5 15.3704
    endloop
  endfacet
  facet normal 0.994057 0 -0.108865
    outer loop
      vertex -13.7136 -5 15.5547
      vertex -13.7338 -5 15.3704
      vertex -13.7338 5 15.3704
    endloop
  endfacet
  facet normal 0.997859 0 -0.0654042
    outer loop
      vertex -13.7338 5 15.3704
      vertex -13.7338 -5 15.3704
      vertex -13.746 5 15.1854
    endloop
  endfacet
  facet normal 0.997859 0 -0.0654042
    outer loop
      vertex -13.7338 -5 15.3704
      vertex -13.746 -5 15.1854
      vertex -13.746 5 15.1854
    endloop
  endfacet
  facet normal 0.999762 0 -0.0218131
    outer loop
      vertex -13.746 5 15.1854
      vertex -13.746 -5 15.1854
      vertex -13.75 5 15
    endloop
  endfacet
  facet normal 0.999762 0 -0.0218131
    outer loop
      vertex -13.746 -5 15.1854
      vertex -13.75 -5 15
      vertex -13.75 5 15
    endloop
  endfacet
  facet normal 0.999762 0 0.0218132
    outer loop
      vertex -13.75 5 15
      vertex -13.75 -5 15
      vertex -13.746 5 14.8146
    endloop
  endfacet
  facet normal 0.999762 0 0.0218132
    outer loop
      vertex -13.75 -5 15
      vertex -13.746 -5 14.8146
      vertex -13.746 5 14.8146
    endloop
  endfacet
  facet normal 0.997859 0 0.0654042
    outer loop
      vertex -13.746 5 14.8146
      vertex -13.746 -5 14.8146
      vertex -13.7338 5 14.6296
    endloop
  endfacet
  facet normal 0.997859 0 0.0654042
    outer loop
      vertex -13.746 -5 14.8146
      vertex -13.7338 -5 14.6296
      vertex -13.7338 5 14.6296
    endloop
  endfacet
  facet normal 0.994057 0 0.108865
    outer loop
      vertex -13.7338 5 14.6296
      vertex -13.7338 -5 14.6296
      vertex -13.7136 5 14.4453
    endloop
  endfacet
  facet normal 0.994057 0 0.108865
    outer loop
      vertex -13.7338 -5 14.6296
      vertex -13.7136 -5 14.4453
      vertex -13.7136 5 14.4453
    endloop
  endfacet
  facet normal 0.988361 0 0.152124
    outer loop
      vertex -13.7136 5 14.4453
      vertex -13.7136 -5 14.4453
      vertex -13.6854 5 14.262
    endloop
  endfacet
  facet normal 0.988361 0 0.152124
    outer loop
      vertex -13.7136 -5 14.4453
      vertex -13.6854 -5 14.262
      vertex -13.6854 5 14.262
    endloop
  endfacet
  facet normal 0.980785 0 0.195092
    outer loop
      vertex -13.6854 5 14.262
      vertex -13.6854 -5 14.262
      vertex -13.6493 5 14.0801
    endloop
  endfacet
  facet normal 0.980785 0 0.195092
    outer loop
      vertex -13.6854 -5 14.262
      vertex -13.6493 -5 14.0801
      vertex -13.6493 5 14.0801
    endloop
  endfacet
  facet normal 0.971342 0 0.237685
    outer loop
      vertex -13.6493 5 14.0801
      vertex -13.6493 -5 14.0801
      vertex -13.6052 5 13.9
    endloop
  endfacet
  facet normal 0.971342 0 0.237685
    outer loop
      vertex -13.6493 -5 14.0801
      vertex -13.6052 -5 13.9
      vertex -13.6052 5 13.9
    endloop
  endfacet
  facet normal 0.96005 0 0.279829
    outer loop
      vertex -13.6052 5 13.9
      vertex -13.6052 -5 13.9
      vertex -13.5533 5 13.722
    endloop
  endfacet
  facet normal 0.96005 0 0.279829
    outer loop
      vertex -13.6052 -5 13.9
      vertex -13.5533 -5 13.722
      vertex -13.5533 5 13.722
    endloop
  endfacet
  facet normal 0.94693 0 0.321441
    outer loop
      vertex -13.5533 5 13.722
      vertex -13.5533 -5 13.722
      vertex -13.4937 5 13.5464
    endloop
  endfacet
  facet normal 0.94693 0 0.321441
    outer loop
      vertex -13.5533 -5 13.722
      vertex -13.4937 -5 13.5464
      vertex -13.4937 5 13.5464
    endloop
  endfacet
  facet normal 0.932009 0 0.362436
    outer loop
      vertex -13.4937 5 13.5464
      vertex -13.4937 -5 13.5464
      vertex -13.4265 5 13.3736
    endloop
  endfacet
  facet normal 0.932009 0 0.362436
    outer loop
      vertex -13.4937 -5 13.5464
      vertex -13.4265 -5 13.3736
      vertex -13.4265 5 13.3736
    endloop
  endfacet
  facet normal 0.915312 0 0.402746
    outer loop
      vertex -13.4265 5 13.3736
      vertex -13.4265 -5 13.3736
      vertex -13.3518 5 13.2039
    endloop
  endfacet
  facet normal 0.915312 0 0.402746
    outer loop
      vertex -13.4265 -5 13.3736
      vertex -13.3518 -5 13.2039
      vertex -13.3518 5 13.2039
    endloop
  endfacet
  facet normal 0.896873 0 0.442289
    outer loop
      vertex -13.3518 5 13.2039
      vertex -13.3518 -5 13.2039
      vertex -13.2698 5 13.0376
    endloop
  endfacet
  facet normal 0.896873 0 0.442289
    outer loop
      vertex -13.3518 -5 13.2039
      vertex -13.2698 -5 13.0376
      vertex -13.2698 5 13.0376
    endloop
  endfacet
  facet normal 0.876726 0 0.48099
    outer loop
      vertex -13.2698 5 13.0376
      vertex -13.2698 -5 13.0376
      vertex -13.1806 5 12.875
    endloop
  endfacet
  facet normal 0.876726 0 0.48099
    outer loop
      vertex -13.2698 -5 13.0376
      vertex -13.1806 -5 12.875
      vertex -13.1806 5 12.875
    endloop
  endfacet
  facet normal 0.854911 0 0.518774
    outer loop
      vertex -13.1806 5 12.875
      vertex -13.1806 -5 12.875
      vertex -13.0844 5 12.7165
    endloop
  endfacet
  facet normal 0.854911 0 0.518774
    outer loop
      vertex -13.1806 -5 12.875
      vertex -13.0844 -5 12.7165
      vertex -13.0844 5 12.7165
    endloop
  endfacet
  facet normal 0.83147 0 0.555569
    outer loop
      vertex -13.0844 5 12.7165
      vertex -13.0844 -5 12.7165
      vertex -12.9814 5 12.5623
    endloop
  endfacet
  facet normal 0.83147 0 0.555569
    outer loop
      vertex -13.0844 -5 12.7165
      vertex -12.9814 -5 12.5623
      vertex -12.9814 5 12.5623
    endloop
  endfacet
  facet normal 0.806444 0 0.591311
    outer loop
      vertex -12.9814 5 12.5623
      vertex -12.9814 -5 12.5623
      vertex -12.8718 5 12.4128
    endloop
  endfacet
  facet normal 0.806444 0 0.591311
    outer loop
      vertex -12.9814 -5 12.5623
      vertex -12.8718 -5 12.4128
      vertex -12.8718 5 12.4128
    endloop
  endfacet
  facet normal 0.779885 0 0.625922
    outer loop
      vertex -12.8718 5 12.4128
      vertex -12.8718 -5 12.4128
      vertex -12.7557 5 12.2682
    endloop
  endfacet
  facet normal 0.779885 0 0.625922
    outer loop
      vertex -12.8718 -5 12.4128
      vertex -12.7557 -5 12.2682
      vertex -12.7557 5 12.2682
    endloop
  endfacet
  facet normal 0.751841 0 0.659345
    outer loop
      vertex -12.7557 5 12.2682
      vertex -12.7557 -5 12.2682
      vertex -12.6334 5 12.1287
    endloop
  endfacet
  facet normal 0.751841 0 0.659345
    outer loop
      vertex -12.7557 -5 12.2682
      vertex -12.6334 -5 12.1287
      vertex -12.6334 5 12.1287
    endloop
  endfacet
  facet normal 0.722363 0 0.691514
    outer loop
      vertex -12.6334 5 12.1287
      vertex -12.6334 -5 12.1287
      vertex -12.5052 5 11.9948
    endloop
  endfacet
  facet normal 0.722363 0 0.691514
    outer loop
      vertex -12.6334 -5 12.1287
      vertex -12.5052 -5 11.9948
      vertex -12.5052 5 11.9948
    endloop
  endfacet
  facet normal 0.691514 0 0.722363
    outer loop
      vertex -12.5052 5 11.9948
      vertex -12.5052 -5 11.9948
      vertex -12.3713 5 11.8666
    endloop
  endfacet
  facet normal 0.691514 0 0.722363
    outer loop
      vertex -12.5052 -5 11.9948
      vertex -12.3713 -5 11.8666
      vertex -12.3713 5 11.8666
    endloop
  endfacet
  facet normal 0.659345 0 0.751841
    outer loop
      vertex -12.3713 5 11.8666
      vertex -12.3713 -5 11.8666
      vertex -12.2318 5 11.7443
    endloop
  endfacet
  facet normal 0.659345 0 0.751841
    outer loop
      vertex -12.3713 -5 11.8666
      vertex -12.2318 -5 11.7443
      vertex -12.2318 5 11.7443
    endloop
  endfacet
  facet normal 0.625922 0 0.779885
    outer loop
      vertex -12.2318 5 11.7443
      vertex -12.2318 -5 11.7443
      vertex -12.0872 5 11.6282
    endloop
  endfacet
  facet normal 0.625922 0 0.779885
    outer loop
      vertex -12.2318 -5 11.7443
      vertex -12.0872 -5 11.6282
      vertex -12.0872 5 11.6282
    endloop
  endfacet
  facet normal 0.591311 0 0.806444
    outer loop
      vertex -12.0872 5 11.6282
      vertex -12.0872 -5 11.6282
      vertex -11.9377 5 11.5186
    endloop
  endfacet
  facet normal 0.591311 0 0.806444
    outer loop
      vertex -12.0872 -5 11.6282
      vertex -11.9377 -5 11.5186
      vertex -11.9377 5 11.5186
    endloop
  endfacet
  facet normal 0.555569 0 0.83147
    outer loop
      vertex -11.9377 5 11.5186
      vertex -11.9377 -5 11.5186
      vertex -11.7835 5 11.4156
    endloop
  endfacet
  facet normal 0.555569 0 0.83147
    outer loop
      vertex -11.9377 -5 11.5186
      vertex -11.7835 -5 11.4156
      vertex -11.7835 5 11.4156
    endloop
  endfacet
  facet normal 0.518774 0 0.854911
    outer loop
      vertex -11.7835 5 11.4156
      vertex -11.7835 -5 11.4156
      vertex -11.625 5 11.3194
    endloop
  endfacet
  facet normal 0.518774 0 0.854911
    outer loop
      vertex -11.7835 -5 11.4156
      vertex -11.625 -5 11.3194
      vertex -11.625 5 11.3194
    endloop
  endfacet
  facet normal 0.480988 0 0.876727
    outer loop
      vertex -11.625 5 11.3194
      vertex -11.625 -5 11.3194
      vertex -11.4624 5 11.2302
    endloop
  endfacet
  facet normal 0.480988 0 0.876727
    outer loop
      vertex -11.625 -5 11.3194
      vertex -11.4624 -5 11.2302
      vertex -11.4624 5 11.2302
    endloop
  endfacet
  facet normal 0.442291 0 0.896872
    outer loop
      vertex -11.4624 5 11.2302
      vertex -11.4624 -5 11.2302
      vertex -11.2961 5 11.1482
    endloop
  endfacet
  facet normal 0.442291 0 0.896872
    outer loop
      vertex -11.4624 -5 11.2302
      vertex -11.2961 -5 11.1482
      vertex -11.2961 5 11.1482
    endloop
  endfacet
  facet normal 0.402746 0 0.915312
    outer loop
      vertex -11.2961 5 11.1482
      vertex -11.2961 -5 11.1482
      vertex -11.1264 5 11.0735
    endloop
  endfacet
  facet normal 0.402746 0 0.915312
    outer loop
      vertex -11.2961 -5 11.1482
      vertex -11.1264 -5 11.0735
      vertex -11.1264 5 11.0735
    endloop
  endfacet
  facet normal 0.36244 0 0.932007
    outer loop
      vertex -11.1264 5 11.0735
      vertex -11.1264 -5 11.0735
      vertex -10.9536 5 11.0063
    endloop
  endfacet
  facet normal 0.36244 0 0.932007
    outer loop
      vertex -11.1264 -5 11.0735
      vertex -10.9536 -5 11.0063
      vertex -10.9536 5 11.0063
    endloop
  endfacet
  facet normal 0.321436 0 0.946931
    outer loop
      vertex -10.9536 5 11.0063
      vertex -10.9536 -5 11.0063
      vertex -10.778 5 10.9467
    endloop
  endfacet
  facet normal 0.321436 0 0.946931
    outer loop
      vertex -10.9536 -5 11.0063
      vertex -10.778 -5 10.9467
      vertex -10.778 5 10.9467
    endloop
  endfacet
  facet normal 0.279829 0 0.96005
    outer loop
      vertex -10.778 5 10.9467
      vertex -10.778 -5 10.9467
      vertex -10.6 5 10.8948
    endloop
  endfacet
  facet normal 0.279829 0 0.96005
    outer loop
      vertex -10.778 -5 10.9467
      vertex -10.6 -5 10.8948
      vertex -10.6 5 10.8948
    endloop
  endfacet
  facet normal 0.237688 0 0.971341
    outer loop
      vertex -10.6 5 10.8948
      vertex -10.6 -5 10.8948
      vertex -10.4199 5 10.8507
    endloop
  endfacet
  facet normal 0.237688 0 0.971341
    outer loop
      vertex -10.6 -5 10.8948
      vertex -10.4199 -5 10.8507
      vertex -10.4199 5 10.8507
    endloop
  endfacet
  facet normal 0.195088 0 0.980786
    outer loop
      vertex -10.4199 5 10.8507
      vertex -10.4199 -5 10.8507
      vertex -10.238 5 10.8146
    endloop
  endfacet
  facet normal 0.195088 0 0.980786
    outer loop
      vertex -10.4199 -5 10.8507
      vertex -10.238 -5 10.8146
      vertex -10.238 5 10.8146
    endloop
  endfacet
  facet normal 0.152124 0 0.988361
    outer loop
      vertex -10.238 5 10.8146
      vertex -10.238 -5 10.8146
      vertex -10.0547 5 10.7864
    endloop
  endfacet
  facet normal 0.152124 0 0.988361
    outer loop
      vertex -10.238 -5 10.8146
      vertex -10.0547 -5 10.7864
      vertex -10.0547 5 10.7864
    endloop
  endfacet
  facet normal 0.108865 0 0.994057
    outer loop
      vertex -10.0547 5 10.7864
      vertex -10.0547 -5 10.7864
      vertex -9.87041 5 10.7662
    endloop
  endfacet
  facet normal 0.108865 0 0.994057
    outer loop
      vertex -10.0547 -5 10.7864
      vertex -9.87041 -5 10.7662
      vertex -9.87041 5 10.7662
    endloop
  endfacet
  facet normal 0.0654042 0 0.997859
    outer loop
      vertex -9.87041 5 10.7662
      vertex -9.87041 -5 10.7662
      vertex -9.68538 5 10.754
    endloop
  endfacet
  facet normal 0.0654042 0 0.997859
    outer loop
      vertex -9.87041 -5 10.7662
      vertex -9.68538 -5 10.754
      vertex -9.68538 5 10.754
    endloop
  endfacet
  facet normal 0.0218131 0 0.999762
    outer loop
      vertex -9.68538 5 10.754
      vertex -9.68538 -5 10.754
      vertex -9.5 5 10.75
    endloop
  endfacet
  facet normal 0.0218131 0 0.999762
    outer loop
      vertex -9.68538 -5 10.754
      vertex -9.5 -5 10.75
      vertex -9.5 5 10.75
    endloop
  endfacet
  facet normal 0.662751 0 -0.748839
    outer loop
      vertex -1.77355 2 13.9951
      vertex 4.21439 2 19.2947
      vertex -1.77355 -5 13.9951
    endloop
  endfacet
  facet normal 0.662751 0 -0.748839
    outer loop
      vertex 4.21439 2 19.2947
      vertex 4.21439 -5 19.2947
      vertex -1.77355 -5 13.9951
    endloop
  endfacet
endsolid Onshape
